<svg width="697" height="449" xmlns="http://www.w3.org/2000/svg" xmlns:xlink="http://www.w3.org/1999/xlink" overflow="hidden"><defs><clipPath id="clip0"><rect x="625" y="33" width="697" height="449"/></clipPath></defs><g clip-path="url(#clip0)" transform="translate(-625 -33)"><g><path d="M698.5 343.5 1285.5 343.5M698.5 295.5 1285.5 295.5M698.5 248.5 1285.5 248.5M698.5 200.5 1285.5 200.5M698.5 153.5 1285.5 153.5M698.5 105.5 1285.5 105.5" stroke="#D9D9D9" stroke-linejoin="round" stroke-miterlimit="10" fill="none"/></g><g><path d="M796.5 105.5 796.5 391.5M893.5 105.5 893.5 391.5M991.5 105.5 991.5 391.5M1089.5 105.5 1089.5 391.5M1187.5 105.5 1187.5 391.5M1285.5 105.5 1285.5 391.5" stroke="#D9D9D9" stroke-linejoin="round" stroke-miterlimit="10" fill="none"/></g><g><path d="M0 0 0.000104987 286" stroke="#BFBFBF" stroke-linejoin="round" stroke-miterlimit="10" fill="none" fill-rule="evenodd" transform="matrix(1 0 0 -1 698.5 391.5)"/></g><g><path d="M698.5 391.5 1285.5 391.5" stroke="#BFBFBF" stroke-linejoin="round" stroke-miterlimit="10" fill="none" fill-rule="evenodd"/></g><g><path d="M698 392 698 392 698 392 698 392 698 392 698 392 698 392 698 392 698 392 698 392 698 392 699 392 699 392 699 392 699 392 699 392 699 391 699 392 699 391 699 392 700 392 700 392 701 392 701 391 702 392 702 392 703 391 703 392 708 391 713 391 718 391 723 392 728 392 733 391 738 392 742 392 747 392 796 392 845 392 894 392 943 392 992 392 1041 391 1089 391 1138 392 1187 392" stroke="#4472C4" stroke-width="2" stroke-linecap="round" stroke-linejoin="round" stroke-miterlimit="10" fill="none"/></g><g><path d="M701.667 391.133C701.667 392.974 700.174 394.467 698.333 394.467 696.492 394.467 695 392.974 695 391.133 695 389.292 696.492 387.8 698.333 387.8 700.174 387.8 701.667 389.292 701.667 391.133Z" stroke="#4472C4" stroke-linejoin="round" stroke-miterlimit="10" fill="#4472C4"/><path d="M701.667 391.133C701.667 392.974 700.174 394.467 698.333 394.467 696.492 394.467 695 392.974 695 391.133 695 389.292 696.492 387.8 698.333 387.8 700.174 387.8 701.667 389.292 701.667 391.133Z" stroke="#4472C4" stroke-linejoin="round" stroke-miterlimit="10" fill="#4472C4"/><path d="M701.667 391.133C701.667 392.974 700.174 394.467 698.333 394.467 696.492 394.467 695 392.974 695 391.133 695 389.292 696.492 387.8 698.333 387.8 700.174 387.8 701.667 389.292 701.667 391.133Z" stroke="#4472C4" stroke-linejoin="round" stroke-miterlimit="10" fill="#4472C4"/><path d="M701.667 391.133C701.667 392.974 700.174 394.467 698.333 394.467 696.492 394.467 695 392.974 695 391.133 695 389.292 696.492 387.8 698.333 387.8 700.174 387.8 701.667 389.292 701.667 391.133Z" stroke="#4472C4" stroke-linejoin="round" stroke-miterlimit="10" fill="#4472C4"/><path d="M701.833 391.133C701.833 392.974 700.341 394.467 698.5 394.467 696.659 394.467 695.167 392.974 695.167 391.133 695.167 389.292 696.659 387.8 698.5 387.8 700.341 387.8 701.833 389.292 701.833 391.133Z" stroke="#4472C4" stroke-linejoin="round" stroke-miterlimit="10" fill="#4472C4"/><path d="M701.833 391.133C701.833 392.974 700.341 394.467 698.5 394.467 696.659 394.467 695.167 392.974 695.167 391.133 695.167 389.292 696.659 387.8 698.5 387.8 700.341 387.8 701.833 389.292 701.833 391.133Z" stroke="#4472C4" stroke-linejoin="round" stroke-miterlimit="10" fill="#4472C4"/><path d="M701.833 391.133C701.833 392.974 700.341 394.467 698.5 394.467 696.659 394.467 695.167 392.974 695.167 391.133 695.167 389.292 696.659 387.8 698.5 387.8 700.341 387.8 701.833 389.292 701.833 391.133Z" stroke="#4472C4" stroke-linejoin="round" stroke-miterlimit="10" fill="#4472C4"/><path d="M701.833 391.133C701.833 392.974 700.341 394.467 698.5 394.467 696.659 394.467 695.167 392.974 695.167 391.133 695.167 389.292 696.659 387.8 698.5 387.8 700.341 387.8 701.833 389.292 701.833 391.133Z" stroke="#4472C4" stroke-linejoin="round" stroke-miterlimit="10" fill="#4472C4"/><path d="M701.833 391.133C701.833 392.974 700.341 394.467 698.5 394.467 696.659 394.467 695.167 392.974 695.167 391.133 695.167 389.292 696.659 387.8 698.5 387.8 700.341 387.8 701.833 389.292 701.833 391.133Z" stroke="#4472C4" stroke-linejoin="round" stroke-miterlimit="10" fill="#4472C4"/><path d="M701.833 391.133C701.833 392.974 700.341 394.467 698.5 394.467 696.659 394.467 695.167 392.974 695.167 391.133 695.167 389.292 696.659 387.8 698.5 387.8 700.341 387.8 701.833 389.292 701.833 391.133Z" stroke="#4472C4" stroke-linejoin="round" stroke-miterlimit="10" fill="#4472C4"/><path d="M701.833 391.133C701.833 392.974 700.341 394.467 698.5 394.467 696.659 394.467 695.167 392.974 695.167 391.133 695.167 389.292 696.659 387.8 698.5 387.8 700.341 387.8 701.833 389.292 701.833 391.133Z" stroke="#4472C4" stroke-linejoin="round" stroke-miterlimit="10" fill="#4472C4"/><path d="M701.833 391.133C701.833 392.974 700.341 394.467 698.5 394.467 696.659 394.467 695.167 392.974 695.167 391.133 695.167 389.292 696.659 387.8 698.5 387.8 700.341 387.8 701.833 389.292 701.833 391.133Z" stroke="#4472C4" stroke-linejoin="round" stroke-miterlimit="10" fill="#4472C4"/><path d="M702 391.133C702 392.974 700.508 394.467 698.667 394.467 696.826 394.467 695.333 392.974 695.333 391.133 695.333 389.292 696.826 387.8 698.667 387.8 700.508 387.8 702 389.292 702 391.133Z" stroke="#4472C4" stroke-linejoin="round" stroke-miterlimit="10" fill="#4472C4"/><path d="M702 391.133C702 392.974 700.508 394.467 698.667 394.467 696.826 394.467 695.333 392.974 695.333 391.133 695.333 389.292 696.826 387.8 698.667 387.8 700.508 387.8 702 389.292 702 391.133Z" stroke="#4472C4" stroke-linejoin="round" stroke-miterlimit="10" fill="#4472C4"/><path d="M702 391.133C702 392.974 700.508 394.467 698.667 394.467 696.826 394.467 695.333 392.974 695.333 391.133 695.333 389.292 696.826 387.8 698.667 387.8 700.508 387.8 702 389.292 702 391.133Z" stroke="#4472C4" stroke-linejoin="round" stroke-miterlimit="10" fill="#4472C4"/><path d="M702 391.133C702 392.974 700.508 394.467 698.667 394.467 696.826 394.467 695.333 392.974 695.333 391.133 695.333 389.292 696.826 387.8 698.667 387.8 700.508 387.8 702 389.292 702 391.133Z" stroke="#4472C4" stroke-linejoin="round" stroke-miterlimit="10" fill="#4472C4"/><path d="M702.167 390.967C702.167 392.808 700.674 394.3 698.833 394.3 696.992 394.3 695.5 392.808 695.5 390.967 695.5 389.126 696.992 387.633 698.833 387.633 700.674 387.633 702.167 389.126 702.167 390.967Z" stroke="#4472C4" stroke-linejoin="round" stroke-miterlimit="10" fill="#4472C4"/><path d="M702.167 391.133C702.167 392.974 700.674 394.467 698.833 394.467 696.992 394.467 695.5 392.974 695.5 391.133 695.5 389.292 696.992 387.8 698.833 387.8 700.674 387.8 702.167 389.292 702.167 391.133Z" stroke="#4472C4" stroke-linejoin="round" stroke-miterlimit="10" fill="#4472C4"/><path d="M702.167 390.967C702.167 392.808 700.674 394.3 698.833 394.3 696.992 394.3 695.5 392.808 695.5 390.967 695.5 389.126 696.992 387.633 698.833 387.633 700.674 387.633 702.167 389.126 702.167 390.967Z" stroke="#4472C4" stroke-linejoin="round" stroke-miterlimit="10" fill="#4472C4"/><path d="M702.667 391.133C702.667 392.974 701.174 394.467 699.333 394.467 697.492 394.467 696 392.974 696 391.133 696 389.292 697.492 387.8 699.333 387.8 701.174 387.8 702.667 389.292 702.667 391.133Z" stroke="#4472C4" stroke-linejoin="round" stroke-miterlimit="10" fill="#4472C4"/><path d="M703.167 391.133C703.167 392.974 701.674 394.467 699.833 394.467 697.992 394.467 696.5 392.974 696.5 391.133 696.5 389.292 697.992 387.8 699.833 387.8 701.674 387.8 703.167 389.292 703.167 391.133Z" stroke="#4472C4" stroke-linejoin="round" stroke-miterlimit="10" fill="#4472C4"/><path d="M703.667 391.133C703.667 392.974 702.174 394.467 700.333 394.467 698.492 394.467 697 392.974 697 391.133 697 389.292 698.492 387.8 700.333 387.8 702.174 387.8 703.667 389.292 703.667 391.133Z" stroke="#4472C4" stroke-linejoin="round" stroke-miterlimit="10" fill="#4472C4"/><path d="M704.167 391.133C704.167 392.974 702.674 394.467 700.833 394.467 698.992 394.467 697.5 392.974 697.5 391.133 697.5 389.292 698.992 387.8 700.833 387.8 702.674 387.8 704.167 389.292 704.167 391.133Z" stroke="#4472C4" stroke-linejoin="round" stroke-miterlimit="10" fill="#4472C4"/><path d="M704.667 390.967C704.667 392.808 703.174 394.3 701.333 394.3 699.492 394.3 698 392.808 698 390.967 698 389.126 699.492 387.633 701.333 387.633 703.174 387.633 704.667 389.126 704.667 390.967Z" stroke="#4472C4" stroke-linejoin="round" stroke-miterlimit="10" fill="#4472C4"/><path d="M705.167 391.133C705.167 392.974 703.674 394.467 701.833 394.467 699.992 394.467 698.5 392.974 698.5 391.133 698.5 389.292 699.992 387.8 701.833 387.8 703.674 387.8 705.167 389.292 705.167 391.133Z" stroke="#4472C4" stroke-linejoin="round" stroke-miterlimit="10" fill="#4472C4"/><path d="M705.667 391.133C705.667 392.974 704.174 394.467 702.333 394.467 700.492 394.467 699 392.974 699 391.133 699 389.292 700.492 387.8 702.333 387.8 704.174 387.8 705.667 389.292 705.667 391.133Z" stroke="#4472C4" stroke-linejoin="round" stroke-miterlimit="10" fill="#4472C4"/><path d="M706.167 390.967C706.167 392.808 704.674 394.3 702.833 394.3 700.992 394.3 699.5 392.808 699.5 390.967 699.5 389.126 700.992 387.633 702.833 387.633 704.674 387.633 706.167 389.126 706.167 390.967Z" stroke="#4472C4" stroke-linejoin="round" stroke-miterlimit="10" fill="#4472C4"/><path d="M706.667 391.133C706.667 392.974 705.174 394.467 703.333 394.467 701.492 394.467 700 392.974 700 391.133 700 389.292 701.492 387.8 703.333 387.8 705.174 387.8 706.667 389.292 706.667 391.133Z" stroke="#4472C4" stroke-linejoin="round" stroke-miterlimit="10" fill="#4472C4"/><path d="M711.5 390.967C711.5 392.808 710.008 394.3 708.167 394.3 706.326 394.3 704.833 392.808 704.833 390.967 704.833 389.126 706.326 387.633 708.167 387.633 710.008 387.633 711.5 389.126 711.5 390.967Z" stroke="#4472C4" stroke-linejoin="round" stroke-miterlimit="10" fill="#4472C4"/><path d="M716.333 390.967C716.333 392.808 714.841 394.3 713 394.3 711.159 394.3 709.667 392.808 709.667 390.967 709.667 389.126 711.159 387.633 713 387.633 714.841 387.633 716.333 389.126 716.333 390.967Z" stroke="#4472C4" stroke-linejoin="round" stroke-miterlimit="10" fill="#4472C4"/><path d="M721.333 390.967C721.333 392.808 719.841 394.3 718 394.3 716.159 394.3 714.667 392.808 714.667 390.967 714.667 389.126 716.159 387.633 718 387.633 719.841 387.633 721.333 389.126 721.333 390.967Z" stroke="#4472C4" stroke-linejoin="round" stroke-miterlimit="10" fill="#4472C4"/><path d="M726.167 391.133C726.167 392.974 724.674 394.467 722.833 394.467 720.992 394.467 719.5 392.974 719.5 391.133 719.5 389.292 720.992 387.8 722.833 387.8 724.674 387.8 726.167 389.292 726.167 391.133Z" stroke="#4472C4" stroke-linejoin="round" stroke-miterlimit="10" fill="#4472C4"/><path d="M731 391.133C731 392.974 729.508 394.467 727.667 394.467 725.826 394.467 724.333 392.974 724.333 391.133 724.333 389.292 725.826 387.8 727.667 387.8 729.508 387.8 731 389.292 731 391.133Z" stroke="#4472C4" stroke-linejoin="round" stroke-miterlimit="10" fill="#4472C4"/><path d="M736 390.967C736 392.808 734.508 394.3 732.667 394.3 730.826 394.3 729.333 392.808 729.333 390.967 729.333 389.126 730.826 387.633 732.667 387.633 734.508 387.633 736 389.126 736 390.967Z" stroke="#4472C4" stroke-linejoin="round" stroke-miterlimit="10" fill="#4472C4"/><path d="M740.833 391.133C740.833 392.974 739.341 394.467 737.5 394.467 735.659 394.467 734.167 392.974 734.167 391.133 734.167 389.292 735.659 387.8 737.5 387.8 739.341 387.8 740.833 389.292 740.833 391.133Z" stroke="#4472C4" stroke-linejoin="round" stroke-miterlimit="10" fill="#4472C4"/><path d="M745.667 391.133C745.667 392.974 744.174 394.467 742.333 394.467 740.492 394.467 739 392.974 739 391.133 739 389.292 740.492 387.8 742.333 387.8 744.174 387.8 745.667 389.292 745.667 391.133Z" stroke="#4472C4" stroke-linejoin="round" stroke-miterlimit="10" fill="#4472C4"/><path d="M750.667 391.133C750.667 392.974 749.174 394.467 747.333 394.467 745.492 394.467 744 392.974 744 391.133 744 389.292 745.492 387.8 747.333 387.8 749.174 387.8 750.667 389.292 750.667 391.133Z" stroke="#4472C4" stroke-linejoin="round" stroke-miterlimit="10" fill="#4472C4"/><path d="M799.5 391.133C799.5 392.974 798.008 394.467 796.167 394.467 794.326 394.467 792.833 392.974 792.833 391.133 792.833 389.292 794.326 387.8 796.167 387.8 798.008 387.8 799.5 389.292 799.5 391.133Z" stroke="#4472C4" stroke-linejoin="round" stroke-miterlimit="10" fill="#4472C4"/><path d="M848.333 391.133C848.333 392.974 846.841 394.467 845 394.467 843.159 394.467 841.667 392.974 841.667 391.133 841.667 389.292 843.159 387.8 845 387.8 846.841 387.8 848.333 389.292 848.333 391.133Z" stroke="#4472C4" stroke-linejoin="round" stroke-miterlimit="10" fill="#4472C4"/><path d="M897.333 391.133C897.333 392.974 895.841 394.467 894 394.467 892.159 394.467 890.667 392.974 890.667 391.133 890.667 389.292 892.159 387.8 894 387.8 895.841 387.8 897.333 389.292 897.333 391.133Z" stroke="#4472C4" stroke-linejoin="round" stroke-miterlimit="10" fill="#4472C4"/><path d="M946.167 391.133C946.167 392.974 944.674 394.467 942.833 394.467 940.992 394.467 939.5 392.974 939.5 391.133 939.5 389.292 940.992 387.8 942.833 387.8 944.674 387.8 946.167 389.292 946.167 391.133Z" stroke="#4472C4" stroke-linejoin="round" stroke-miterlimit="10" fill="#4472C4"/><path d="M995 391.133C995 392.974 993.508 394.467 991.667 394.467 989.826 394.467 988.333 392.974 988.333 391.133 988.333 389.292 989.826 387.8 991.667 387.8 993.508 387.8 995 389.292 995 391.133Z" stroke="#4472C4" stroke-linejoin="round" stroke-miterlimit="10" fill="#4472C4"/><path d="M1044 390.967C1044 392.808 1042.51 394.3 1040.67 394.3 1038.83 394.3 1037.33 392.808 1037.33 390.967 1037.33 389.126 1038.83 387.633 1040.67 387.633 1042.51 387.633 1044 389.126 1044 390.967Z" stroke="#4472C4" stroke-linejoin="round" stroke-miterlimit="10" fill="#4472C4"/><path d="M1092.83 390.967C1092.83 392.808 1091.34 394.3 1089.5 394.3 1087.66 394.3 1086.17 392.808 1086.17 390.967 1086.17 389.126 1087.66 387.633 1089.5 387.633 1091.34 387.633 1092.83 389.126 1092.83 390.967Z" stroke="#4472C4" stroke-linejoin="round" stroke-miterlimit="10" fill="#4472C4"/><path d="M1141.67 391.133C1141.67 392.974 1140.17 394.467 1138.33 394.467 1136.49 394.467 1135 392.974 1135 391.133 1135 389.292 1136.49 387.8 1138.33 387.8 1140.17 387.8 1141.67 389.292 1141.67 391.133Z" stroke="#4472C4" stroke-linejoin="round" stroke-miterlimit="10" fill="#4472C4"/><path d="M1190.67 391.133C1190.67 392.974 1189.17 394.467 1187.33 394.467 1185.49 394.467 1184 392.974 1184 391.133 1184 389.292 1185.49 387.8 1187.33 387.8 1189.17 387.8 1190.67 389.292 1190.67 391.133Z" stroke="#4472C4" stroke-linejoin="round" stroke-miterlimit="10" fill="#4472C4"/></g><g><path d="M698 391 698 391 698 391 698 391 698 391 698 391 698 391 698 391 698 391 698 391 698 391 699 391 699 391 699 391 699 391 699 391 699 391 699 391 699 391 699 391 700 390 700 390 701 390 701 390 702 390 702 389 703 389 703 389 708 387 713 383 718 382 723 380 728 377 733 375 738 370 742 366 747 366 796 340 845 310 894 286 943 264 992 236 1041 201 1089 182 1138 140 1187 124" stroke="#ED7D31" stroke-width="2" stroke-linecap="round" stroke-linejoin="round" stroke-miterlimit="10" fill="none"/></g><g><path d="M701.667 390.967C701.667 392.808 700.174 394.3 698.333 394.3 696.492 394.3 695 392.808 695 390.967 695 389.126 696.492 387.633 698.333 387.633 700.174 387.633 701.667 389.126 701.667 390.967Z" stroke="#ED7D31" stroke-linejoin="round" stroke-miterlimit="10" fill="#ED7D31"/><path d="M701.667 391.133C701.667 392.974 700.174 394.467 698.333 394.467 696.492 394.467 695 392.974 695 391.133 695 389.292 696.492 387.8 698.333 387.8 700.174 387.8 701.667 389.292 701.667 391.133Z" stroke="#ED7D31" stroke-linejoin="round" stroke-miterlimit="10" fill="#ED7D31"/><path d="M701.667 390.967C701.667 392.808 700.174 394.3 698.333 394.3 696.492 394.3 695 392.808 695 390.967 695 389.126 696.492 387.633 698.333 387.633 700.174 387.633 701.667 389.126 701.667 390.967Z" stroke="#ED7D31" stroke-linejoin="round" stroke-miterlimit="10" fill="#ED7D31"/><path d="M701.667 391.133C701.667 392.974 700.174 394.467 698.333 394.467 696.492 394.467 695 392.974 695 391.133 695 389.292 696.492 387.8 698.333 387.8 700.174 387.8 701.667 389.292 701.667 391.133Z" stroke="#ED7D31" stroke-linejoin="round" stroke-miterlimit="10" fill="#ED7D31"/><path d="M701.833 391.133C701.833 392.974 700.341 394.467 698.5 394.467 696.659 394.467 695.167 392.974 695.167 391.133 695.167 389.292 696.659 387.8 698.5 387.8 700.341 387.8 701.833 389.292 701.833 391.133Z" stroke="#ED7D31" stroke-linejoin="round" stroke-miterlimit="10" fill="#ED7D31"/><path d="M701.833 390.967C701.833 392.808 700.341 394.3 698.5 394.3 696.659 394.3 695.167 392.808 695.167 390.967 695.167 389.126 696.659 387.633 698.5 387.633 700.341 387.633 701.833 389.126 701.833 390.967Z" stroke="#ED7D31" stroke-linejoin="round" stroke-miterlimit="10" fill="#ED7D31"/><path d="M701.833 391.133C701.833 392.974 700.341 394.467 698.5 394.467 696.659 394.467 695.167 392.974 695.167 391.133 695.167 389.292 696.659 387.8 698.5 387.8 700.341 387.8 701.833 389.292 701.833 391.133Z" stroke="#ED7D31" stroke-linejoin="round" stroke-miterlimit="10" fill="#ED7D31"/><path d="M701.833 391.133C701.833 392.974 700.341 394.467 698.5 394.467 696.659 394.467 695.167 392.974 695.167 391.133 695.167 389.292 696.659 387.8 698.5 387.8 700.341 387.8 701.833 389.292 701.833 391.133Z" stroke="#ED7D31" stroke-linejoin="round" stroke-miterlimit="10" fill="#ED7D31"/><path d="M701.833 391.133C701.833 392.974 700.341 394.467 698.5 394.467 696.659 394.467 695.167 392.974 695.167 391.133 695.167 389.292 696.659 387.8 698.5 387.8 700.341 387.8 701.833 389.292 701.833 391.133Z" stroke="#ED7D31" stroke-linejoin="round" stroke-miterlimit="10" fill="#ED7D31"/><path d="M701.833 390.967C701.833 392.808 700.341 394.3 698.5 394.3 696.659 394.3 695.167 392.808 695.167 390.967 695.167 389.126 696.659 387.633 698.5 387.633 700.341 387.633 701.833 389.126 701.833 390.967Z" stroke="#ED7D31" stroke-linejoin="round" stroke-miterlimit="10" fill="#ED7D31"/><path d="M701.833 390.967C701.833 392.808 700.341 394.3 698.5 394.3 696.659 394.3 695.167 392.808 695.167 390.967 695.167 389.126 696.659 387.633 698.5 387.633 700.341 387.633 701.833 389.126 701.833 390.967Z" stroke="#ED7D31" stroke-linejoin="round" stroke-miterlimit="10" fill="#ED7D31"/><path d="M701.833 390.967C701.833 392.808 700.341 394.3 698.5 394.3 696.659 394.3 695.167 392.808 695.167 390.967 695.167 389.126 696.659 387.633 698.5 387.633 700.341 387.633 701.833 389.126 701.833 390.967Z" stroke="#ED7D31" stroke-linejoin="round" stroke-miterlimit="10" fill="#ED7D31"/><path d="M702 390.967C702 392.808 700.508 394.3 698.667 394.3 696.826 394.3 695.333 392.808 695.333 390.967 695.333 389.126 696.826 387.633 698.667 387.633 700.508 387.633 702 389.126 702 390.967Z" stroke="#ED7D31" stroke-linejoin="round" stroke-miterlimit="10" fill="#ED7D31"/><path d="M702 390.8C702 392.641 700.508 394.133 698.667 394.133 696.826 394.133 695.333 392.641 695.333 390.8 695.333 388.959 696.826 387.467 698.667 387.467 700.508 387.467 702 388.959 702 390.8Z" stroke="#ED7D31" stroke-linejoin="round" stroke-miterlimit="10" fill="#ED7D31"/><path d="M702 390.8C702 392.641 700.508 394.133 698.667 394.133 696.826 394.133 695.333 392.641 695.333 390.8 695.333 388.959 696.826 387.467 698.667 387.467 700.508 387.467 702 388.959 702 390.8Z" stroke="#ED7D31" stroke-linejoin="round" stroke-miterlimit="10" fill="#ED7D31"/><path d="M702 390.8C702 392.641 700.508 394.133 698.667 394.133 696.826 394.133 695.333 392.641 695.333 390.8 695.333 388.959 696.826 387.467 698.667 387.467 700.508 387.467 702 388.959 702 390.8Z" stroke="#ED7D31" stroke-linejoin="round" stroke-miterlimit="10" fill="#ED7D31"/><path d="M702.167 390.8C702.167 392.641 700.674 394.133 698.833 394.133 696.992 394.133 695.5 392.641 695.5 390.8 695.5 388.959 696.992 387.467 698.833 387.467 700.674 387.467 702.167 388.959 702.167 390.8Z" stroke="#ED7D31" stroke-linejoin="round" stroke-miterlimit="10" fill="#ED7D31"/><path d="M702.167 390.8C702.167 392.641 700.674 394.133 698.833 394.133 696.992 394.133 695.5 392.641 695.5 390.8 695.5 388.959 696.992 387.467 698.833 387.467 700.674 387.467 702.167 388.959 702.167 390.8Z" stroke="#ED7D31" stroke-linejoin="round" stroke-miterlimit="10" fill="#ED7D31"/><path d="M702.167 390.8C702.167 392.641 700.674 394.133 698.833 394.133 696.992 394.133 695.5 392.641 695.5 390.8 695.5 388.959 696.992 387.467 698.833 387.467 700.674 387.467 702.167 388.959 702.167 390.8Z" stroke="#ED7D31" stroke-linejoin="round" stroke-miterlimit="10" fill="#ED7D31"/><path d="M702.667 390.633C702.667 392.474 701.174 393.967 699.333 393.967 697.492 393.967 696 392.474 696 390.633 696 388.792 697.492 387.3 699.333 387.3 701.174 387.3 702.667 388.792 702.667 390.633Z" stroke="#ED7D31" stroke-linejoin="round" stroke-miterlimit="10" fill="#ED7D31"/><path d="M703.167 390.467C703.167 392.308 701.674 393.8 699.833 393.8 697.992 393.8 696.5 392.308 696.5 390.467 696.5 388.626 697.992 387.133 699.833 387.133 701.674 387.133 703.167 388.626 703.167 390.467Z" stroke="#ED7D31" stroke-linejoin="round" stroke-miterlimit="10" fill="#ED7D31"/><path d="M703.667 390.133C703.667 391.974 702.174 393.467 700.333 393.467 698.492 393.467 697 391.974 697 390.133 697 388.292 698.492 386.8 700.333 386.8 702.174 386.8 703.667 388.292 703.667 390.133Z" stroke="#ED7D31" stroke-linejoin="round" stroke-miterlimit="10" fill="#ED7D31"/><path d="M704.167 389.967C704.167 391.808 702.674 393.3 700.833 393.3 698.992 393.3 697.5 391.808 697.5 389.967 697.5 388.126 698.992 386.633 700.833 386.633 702.674 386.633 704.167 388.126 704.167 389.967Z" stroke="#ED7D31" stroke-linejoin="round" stroke-miterlimit="10" fill="#ED7D31"/><path d="M704.667 389.633C704.667 391.474 703.174 392.967 701.333 392.967 699.492 392.967 698 391.474 698 389.633 698 387.792 699.492 386.3 701.333 386.3 703.174 386.3 704.667 387.792 704.667 389.633Z" stroke="#ED7D31" stroke-linejoin="round" stroke-miterlimit="10" fill="#ED7D31"/><path d="M705.167 389.467C705.167 391.308 703.674 392.8 701.833 392.8 699.992 392.8 698.5 391.308 698.5 389.467 698.5 387.626 699.992 386.133 701.833 386.133 703.674 386.133 705.167 387.626 705.167 389.467Z" stroke="#ED7D31" stroke-linejoin="round" stroke-miterlimit="10" fill="#ED7D31"/><path d="M705.667 389.3C705.667 391.141 704.174 392.633 702.333 392.633 700.492 392.633 699 391.141 699 389.3 699 387.459 700.492 385.967 702.333 385.967 704.174 385.967 705.667 387.459 705.667 389.3Z" stroke="#ED7D31" stroke-linejoin="round" stroke-miterlimit="10" fill="#ED7D31"/><path d="M706.167 389.133C706.167 390.974 704.674 392.467 702.833 392.467 700.992 392.467 699.5 390.974 699.5 389.133 699.5 387.292 700.992 385.8 702.833 385.8 704.674 385.8 706.167 387.292 706.167 389.133Z" stroke="#ED7D31" stroke-linejoin="round" stroke-miterlimit="10" fill="#ED7D31"/><path d="M706.667 388.8C706.667 390.641 705.174 392.133 703.333 392.133 701.492 392.133 700 390.641 700 388.8 700 386.959 701.492 385.467 703.333 385.467 705.174 385.467 706.667 386.959 706.667 388.8Z" stroke="#ED7D31" stroke-linejoin="round" stroke-miterlimit="10" fill="#ED7D31"/><path d="M711.5 386.467C711.5 388.308 710.008 389.8 708.167 389.8 706.326 389.8 704.833 388.308 704.833 386.467 704.833 384.626 706.326 383.133 708.167 383.133 710.008 383.133 711.5 384.626 711.5 386.467Z" stroke="#ED7D31" stroke-linejoin="round" stroke-miterlimit="10" fill="#ED7D31"/><path d="M716.333 383.467C716.333 385.308 714.841 386.8 713 386.8 711.159 386.8 709.667 385.308 709.667 383.467 709.667 381.626 711.159 380.133 713 380.133 714.841 380.133 716.333 381.626 716.333 383.467Z" stroke="#ED7D31" stroke-linejoin="round" stroke-miterlimit="10" fill="#ED7D31"/><path d="M721.333 381.967C721.333 383.808 719.841 385.3 718 385.3 716.159 385.3 714.667 383.808 714.667 381.967 714.667 380.126 716.159 378.633 718 378.633 719.841 378.633 721.333 380.126 721.333 381.967Z" stroke="#ED7D31" stroke-linejoin="round" stroke-miterlimit="10" fill="#ED7D31"/><path d="M726.167 379.633C726.167 381.474 724.674 382.967 722.833 382.967 720.992 382.967 719.5 381.474 719.5 379.633 719.5 377.792 720.992 376.3 722.833 376.3 724.674 376.3 726.167 377.792 726.167 379.633Z" stroke="#ED7D31" stroke-linejoin="round" stroke-miterlimit="10" fill="#ED7D31"/><path d="M731 377.3C731 379.141 729.508 380.633 727.667 380.633 725.826 380.633 724.333 379.141 724.333 377.3 724.333 375.459 725.826 373.967 727.667 373.967 729.508 373.967 731 375.459 731 377.3Z" stroke="#ED7D31" stroke-linejoin="round" stroke-miterlimit="10" fill="#ED7D31"/><path d="M736 374.967C736 376.808 734.508 378.3 732.667 378.3 730.826 378.3 729.333 376.808 729.333 374.967 729.333 373.126 730.826 371.633 732.667 371.633 734.508 371.633 736 373.126 736 374.967Z" stroke="#ED7D31" stroke-linejoin="round" stroke-miterlimit="10" fill="#ED7D31"/><path d="M740.833 370.133C740.833 371.974 739.341 373.467 737.5 373.467 735.659 373.467 734.167 371.974 734.167 370.133 734.167 368.292 735.659 366.8 737.5 366.8 739.341 366.8 740.833 368.292 740.833 370.133Z" stroke="#ED7D31" stroke-linejoin="round" stroke-miterlimit="10" fill="#ED7D31"/><path d="M745.667 366.467C745.667 368.308 744.174 369.8 742.333 369.8 740.492 369.8 739 368.308 739 366.467 739 364.626 740.492 363.133 742.333 363.133 744.174 363.133 745.667 364.626 745.667 366.467Z" stroke="#ED7D31" stroke-linejoin="round" stroke-miterlimit="10" fill="#ED7D31"/><path d="M750.667 365.633C750.667 367.474 749.174 368.967 747.333 368.967 745.492 368.967 744 367.474 744 365.633 744 363.792 745.492 362.3 747.333 362.3 749.174 362.3 750.667 363.792 750.667 365.633Z" stroke="#ED7D31" stroke-linejoin="round" stroke-miterlimit="10" fill="#ED7D31"/><path d="M799.5 340.3C799.5 342.141 798.008 343.633 796.167 343.633 794.326 343.633 792.833 342.141 792.833 340.3 792.833 338.459 794.326 336.967 796.167 336.967 798.008 336.967 799.5 338.459 799.5 340.3Z" stroke="#ED7D31" stroke-linejoin="round" stroke-miterlimit="10" fill="#ED7D31"/><path d="M848.333 310.3C848.333 312.141 846.841 313.633 845 313.633 843.159 313.633 841.667 312.141 841.667 310.3 841.667 308.459 843.159 306.967 845 306.967 846.841 306.967 848.333 308.459 848.333 310.3Z" stroke="#ED7D31" stroke-linejoin="round" stroke-miterlimit="10" fill="#ED7D31"/><path d="M897.333 286.3C897.333 288.141 895.841 289.633 894 289.633 892.159 289.633 890.667 288.141 890.667 286.3 890.667 284.459 892.159 282.967 894 282.967 895.841 282.967 897.333 284.459 897.333 286.3Z" stroke="#ED7D31" stroke-linejoin="round" stroke-miterlimit="10" fill="#ED7D31"/><path d="M946.167 263.8C946.167 265.641 944.674 267.133 942.833 267.133 940.992 267.133 939.5 265.641 939.5 263.8 939.5 261.959 940.992 260.467 942.833 260.467 944.674 260.467 946.167 261.959 946.167 263.8Z" stroke="#ED7D31" stroke-linejoin="round" stroke-miterlimit="10" fill="#ED7D31"/><path d="M995 235.467C995 237.308 993.508 238.8 991.667 238.8 989.826 238.8 988.333 237.308 988.333 235.467 988.333 233.626 989.826 232.133 991.667 232.133 993.508 232.133 995 233.626 995 235.467Z" stroke="#ED7D31" stroke-linejoin="round" stroke-miterlimit="10" fill="#ED7D31"/><path d="M1044 200.967C1044 202.808 1042.51 204.3 1040.67 204.3 1038.83 204.3 1037.33 202.808 1037.33 200.967 1037.33 199.126 1038.83 197.633 1040.67 197.633 1042.51 197.633 1044 199.126 1044 200.967Z" stroke="#ED7D31" stroke-linejoin="round" stroke-miterlimit="10" fill="#ED7D31"/><path d="M1092.83 182.133C1092.83 183.974 1091.34 185.467 1089.5 185.467 1087.66 185.467 1086.17 183.974 1086.17 182.133 1086.17 180.292 1087.66 178.8 1089.5 178.8 1091.34 178.8 1092.83 180.292 1092.83 182.133Z" stroke="#ED7D31" stroke-linejoin="round" stroke-miterlimit="10" fill="#ED7D31"/><path d="M1141.67 139.8C1141.67 141.641 1140.17 143.133 1138.33 143.133 1136.49 143.133 1135 141.641 1135 139.8 1135 137.959 1136.49 136.467 1138.33 136.467 1140.17 136.467 1141.67 137.959 1141.67 139.8Z" stroke="#ED7D31" stroke-linejoin="round" stroke-miterlimit="10" fill="#ED7D31"/><path d="M1190.67 123.8C1190.67 125.641 1189.17 127.133 1187.33 127.133 1185.49 127.133 1184 125.641 1184 123.8 1184 121.959 1185.49 120.467 1187.33 120.467 1189.17 120.467 1190.67 121.959 1190.67 123.8Z" stroke="#ED7D31" stroke-linejoin="round" stroke-miterlimit="10" fill="#ED7D31"/></g><g><path d="M698 391 698 391 698 391 698 391 698 391 698 391 698 391 698 391 698 391 698 391 698 391 699 391 699 391 699 391 699 391 699 391 699 391 699 391 699 391 699 391 700 391 700 390 701 390 701 390 702 390 702 390 703 389 703 389 708 387 713 386 718 384 723 382 728 381 733 378 738 375 742 373 747 371 796 350 845 327 894 295 943 267 992 245 1041 220 1089 203 1138 171 1187 123" stroke="#A5A5A5" stroke-width="2" stroke-linecap="round" stroke-linejoin="round" stroke-miterlimit="10" fill="none"/></g><g><path d="M701.667 391.133C701.667 392.974 700.174 394.467 698.333 394.467 696.492 394.467 695 392.974 695 391.133 695 389.292 696.492 387.8 698.333 387.8 700.174 387.8 701.667 389.292 701.667 391.133Z" stroke="#A5A5A5" stroke-linejoin="round" stroke-miterlimit="10" fill="#A5A5A5"/><path d="M701.667 391.133C701.667 392.974 700.174 394.467 698.333 394.467 696.492 394.467 695 392.974 695 391.133 695 389.292 696.492 387.8 698.333 387.8 700.174 387.8 701.667 389.292 701.667 391.133Z" stroke="#A5A5A5" stroke-linejoin="round" stroke-miterlimit="10" fill="#A5A5A5"/><path d="M701.667 391.133C701.667 392.974 700.174 394.467 698.333 394.467 696.492 394.467 695 392.974 695 391.133 695 389.292 696.492 387.8 698.333 387.8 700.174 387.8 701.667 389.292 701.667 391.133Z" stroke="#A5A5A5" stroke-linejoin="round" stroke-miterlimit="10" fill="#A5A5A5"/><path d="M701.667 391.133C701.667 392.974 700.174 394.467 698.333 394.467 696.492 394.467 695 392.974 695 391.133 695 389.292 696.492 387.8 698.333 387.8 700.174 387.8 701.667 389.292 701.667 391.133Z" stroke="#A5A5A5" stroke-linejoin="round" stroke-miterlimit="10" fill="#A5A5A5"/><path d="M701.833 391.133C701.833 392.974 700.341 394.467 698.5 394.467 696.659 394.467 695.167 392.974 695.167 391.133 695.167 389.292 696.659 387.8 698.5 387.8 700.341 387.8 701.833 389.292 701.833 391.133Z" stroke="#A5A5A5" stroke-linejoin="round" stroke-miterlimit="10" fill="#A5A5A5"/><path d="M701.833 391.133C701.833 392.974 700.341 394.467 698.5 394.467 696.659 394.467 695.167 392.974 695.167 391.133 695.167 389.292 696.659 387.8 698.5 387.8 700.341 387.8 701.833 389.292 701.833 391.133Z" stroke="#A5A5A5" stroke-linejoin="round" stroke-miterlimit="10" fill="#A5A5A5"/><path d="M701.833 391.133C701.833 392.974 700.341 394.467 698.5 394.467 696.659 394.467 695.167 392.974 695.167 391.133 695.167 389.292 696.659 387.8 698.5 387.8 700.341 387.8 701.833 389.292 701.833 391.133Z" stroke="#A5A5A5" stroke-linejoin="round" stroke-miterlimit="10" fill="#A5A5A5"/><path d="M701.833 391.133C701.833 392.974 700.341 394.467 698.5 394.467 696.659 394.467 695.167 392.974 695.167 391.133 695.167 389.292 696.659 387.8 698.5 387.8 700.341 387.8 701.833 389.292 701.833 391.133Z" stroke="#A5A5A5" stroke-linejoin="round" stroke-miterlimit="10" fill="#A5A5A5"/><path d="M701.833 391.133C701.833 392.974 700.341 394.467 698.5 394.467 696.659 394.467 695.167 392.974 695.167 391.133 695.167 389.292 696.659 387.8 698.5 387.8 700.341 387.8 701.833 389.292 701.833 391.133Z" stroke="#A5A5A5" stroke-linejoin="round" stroke-miterlimit="10" fill="#A5A5A5"/><path d="M701.833 391.133C701.833 392.974 700.341 394.467 698.5 394.467 696.659 394.467 695.167 392.974 695.167 391.133 695.167 389.292 696.659 387.8 698.5 387.8 700.341 387.8 701.833 389.292 701.833 391.133Z" stroke="#A5A5A5" stroke-linejoin="round" stroke-miterlimit="10" fill="#A5A5A5"/><path d="M701.833 390.967C701.833 392.808 700.341 394.3 698.5 394.3 696.659 394.3 695.167 392.808 695.167 390.967 695.167 389.126 696.659 387.633 698.5 387.633 700.341 387.633 701.833 389.126 701.833 390.967Z" stroke="#A5A5A5" stroke-linejoin="round" stroke-miterlimit="10" fill="#A5A5A5"/><path d="M701.833 390.967C701.833 392.808 700.341 394.3 698.5 394.3 696.659 394.3 695.167 392.808 695.167 390.967 695.167 389.126 696.659 387.633 698.5 387.633 700.341 387.633 701.833 389.126 701.833 390.967Z" stroke="#A5A5A5" stroke-linejoin="round" stroke-miterlimit="10" fill="#A5A5A5"/><path d="M702 390.967C702 392.808 700.508 394.3 698.667 394.3 696.826 394.3 695.333 392.808 695.333 390.967 695.333 389.126 696.826 387.633 698.667 387.633 700.508 387.633 702 389.126 702 390.967Z" stroke="#A5A5A5" stroke-linejoin="round" stroke-miterlimit="10" fill="#A5A5A5"/><path d="M702 390.967C702 392.808 700.508 394.3 698.667 394.3 696.826 394.3 695.333 392.808 695.333 390.967 695.333 389.126 696.826 387.633 698.667 387.633 700.508 387.633 702 389.126 702 390.967Z" stroke="#A5A5A5" stroke-linejoin="round" stroke-miterlimit="10" fill="#A5A5A5"/><path d="M702 390.967C702 392.808 700.508 394.3 698.667 394.3 696.826 394.3 695.333 392.808 695.333 390.967 695.333 389.126 696.826 387.633 698.667 387.633 700.508 387.633 702 389.126 702 390.967Z" stroke="#A5A5A5" stroke-linejoin="round" stroke-miterlimit="10" fill="#A5A5A5"/><path d="M702 390.967C702 392.808 700.508 394.3 698.667 394.3 696.826 394.3 695.333 392.808 695.333 390.967 695.333 389.126 696.826 387.633 698.667 387.633 700.508 387.633 702 389.126 702 390.967Z" stroke="#A5A5A5" stroke-linejoin="round" stroke-miterlimit="10" fill="#A5A5A5"/><path d="M702.167 390.8C702.167 392.641 700.674 394.133 698.833 394.133 696.992 394.133 695.5 392.641 695.5 390.8 695.5 388.959 696.992 387.467 698.833 387.467 700.674 387.467 702.167 388.959 702.167 390.8Z" stroke="#A5A5A5" stroke-linejoin="round" stroke-miterlimit="10" fill="#A5A5A5"/><path d="M702.167 390.8C702.167 392.641 700.674 394.133 698.833 394.133 696.992 394.133 695.5 392.641 695.5 390.8 695.5 388.959 696.992 387.467 698.833 387.467 700.674 387.467 702.167 388.959 702.167 390.8Z" stroke="#A5A5A5" stroke-linejoin="round" stroke-miterlimit="10" fill="#A5A5A5"/><path d="M702.167 390.8C702.167 392.641 700.674 394.133 698.833 394.133 696.992 394.133 695.5 392.641 695.5 390.8 695.5 388.959 696.992 387.467 698.833 387.467 700.674 387.467 702.167 388.959 702.167 390.8Z" stroke="#A5A5A5" stroke-linejoin="round" stroke-miterlimit="10" fill="#A5A5A5"/><path d="M702.667 390.633C702.667 392.474 701.174 393.967 699.333 393.967 697.492 393.967 696 392.474 696 390.633 696 388.792 697.492 387.3 699.333 387.3 701.174 387.3 702.667 388.792 702.667 390.633Z" stroke="#A5A5A5" stroke-linejoin="round" stroke-miterlimit="10" fill="#A5A5A5"/><path d="M703.167 390.467C703.167 392.308 701.674 393.8 699.833 393.8 697.992 393.8 696.5 392.308 696.5 390.467 696.5 388.626 697.992 387.133 699.833 387.133 701.674 387.133 703.167 388.626 703.167 390.467Z" stroke="#A5A5A5" stroke-linejoin="round" stroke-miterlimit="10" fill="#A5A5A5"/><path d="M703.667 390.3C703.667 392.141 702.174 393.633 700.333 393.633 698.492 393.633 697 392.141 697 390.3 697 388.459 698.492 386.967 700.333 386.967 702.174 386.967 703.667 388.459 703.667 390.3Z" stroke="#A5A5A5" stroke-linejoin="round" stroke-miterlimit="10" fill="#A5A5A5"/><path d="M704.167 390.133C704.167 391.974 702.674 393.467 700.833 393.467 698.992 393.467 697.5 391.974 697.5 390.133 697.5 388.292 698.992 386.8 700.833 386.8 702.674 386.8 704.167 388.292 704.167 390.133Z" stroke="#A5A5A5" stroke-linejoin="round" stroke-miterlimit="10" fill="#A5A5A5"/><path d="M704.667 389.967C704.667 391.808 703.174 393.3 701.333 393.3 699.492 393.3 698 391.808 698 389.967 698 388.126 699.492 386.633 701.333 386.633 703.174 386.633 704.667 388.126 704.667 389.967Z" stroke="#A5A5A5" stroke-linejoin="round" stroke-miterlimit="10" fill="#A5A5A5"/><path d="M705.167 389.8C705.167 391.641 703.674 393.133 701.833 393.133 699.992 393.133 698.5 391.641 698.5 389.8 698.5 387.959 699.992 386.467 701.833 386.467 703.674 386.467 705.167 387.959 705.167 389.8Z" stroke="#A5A5A5" stroke-linejoin="round" stroke-miterlimit="10" fill="#A5A5A5"/><path d="M705.667 389.633C705.667 391.474 704.174 392.967 702.333 392.967 700.492 392.967 699 391.474 699 389.633 699 387.792 700.492 386.3 702.333 386.3 704.174 386.3 705.667 387.792 705.667 389.633Z" stroke="#A5A5A5" stroke-linejoin="round" stroke-miterlimit="10" fill="#A5A5A5"/><path d="M706.167 389.3C706.167 391.141 704.674 392.633 702.833 392.633 700.992 392.633 699.5 391.141 699.5 389.3 699.5 387.459 700.992 385.967 702.833 385.967 704.674 385.967 706.167 387.459 706.167 389.3Z" stroke="#A5A5A5" stroke-linejoin="round" stroke-miterlimit="10" fill="#A5A5A5"/><path d="M706.667 389.3C706.667 391.141 705.174 392.633 703.333 392.633 701.492 392.633 700 391.141 700 389.3 700 387.459 701.492 385.967 703.333 385.967 705.174 385.967 706.667 387.459 706.667 389.3Z" stroke="#A5A5A5" stroke-linejoin="round" stroke-miterlimit="10" fill="#A5A5A5"/><path d="M711.5 387.3C711.5 389.141 710.008 390.633 708.167 390.633 706.326 390.633 704.833 389.141 704.833 387.3 704.833 385.459 706.326 383.967 708.167 383.967 710.008 383.967 711.5 385.459 711.5 387.3Z" stroke="#A5A5A5" stroke-linejoin="round" stroke-miterlimit="10" fill="#A5A5A5"/><path d="M716.333 385.8C716.333 387.641 714.841 389.133 713 389.133 711.159 389.133 709.667 387.641 709.667 385.8 709.667 383.959 711.159 382.467 713 382.467 714.841 382.467 716.333 383.959 716.333 385.8Z" stroke="#A5A5A5" stroke-linejoin="round" stroke-miterlimit="10" fill="#A5A5A5"/><path d="M721.333 383.967C721.333 385.808 719.841 387.3 718 387.3 716.159 387.3 714.667 385.808 714.667 383.967 714.667 382.126 716.159 380.633 718 380.633 719.841 380.633 721.333 382.126 721.333 383.967Z" stroke="#A5A5A5" stroke-linejoin="round" stroke-miterlimit="10" fill="#A5A5A5"/><path d="M726.167 382.133C726.167 383.974 724.674 385.467 722.833 385.467 720.992 385.467 719.5 383.974 719.5 382.133 719.5 380.292 720.992 378.8 722.833 378.8 724.674 378.8 726.167 380.292 726.167 382.133Z" stroke="#A5A5A5" stroke-linejoin="round" stroke-miterlimit="10" fill="#A5A5A5"/><path d="M731 380.467C731 382.308 729.508 383.8 727.667 383.8 725.826 383.8 724.333 382.308 724.333 380.467 724.333 378.626 725.826 377.133 727.667 377.133 729.508 377.133 731 378.626 731 380.467Z" stroke="#A5A5A5" stroke-linejoin="round" stroke-miterlimit="10" fill="#A5A5A5"/><path d="M736 377.8C736 379.641 734.508 381.133 732.667 381.133 730.826 381.133 729.333 379.641 729.333 377.8 729.333 375.959 730.826 374.467 732.667 374.467 734.508 374.467 736 375.959 736 377.8Z" stroke="#A5A5A5" stroke-linejoin="round" stroke-miterlimit="10" fill="#A5A5A5"/><path d="M740.833 374.8C740.833 376.641 739.341 378.133 737.5 378.133 735.659 378.133 734.167 376.641 734.167 374.8 734.167 372.959 735.659 371.467 737.5 371.467 739.341 371.467 740.833 372.959 740.833 374.8Z" stroke="#A5A5A5" stroke-linejoin="round" stroke-miterlimit="10" fill="#A5A5A5"/><path d="M745.667 372.967C745.667 374.808 744.174 376.3 742.333 376.3 740.492 376.3 739 374.808 739 372.967 739 371.126 740.492 369.633 742.333 369.633 744.174 369.633 745.667 371.126 745.667 372.967Z" stroke="#A5A5A5" stroke-linejoin="round" stroke-miterlimit="10" fill="#A5A5A5"/><path d="M750.667 371.3C750.667 373.141 749.174 374.633 747.333 374.633 745.492 374.633 744 373.141 744 371.3 744 369.459 745.492 367.967 747.333 367.967 749.174 367.967 750.667 369.459 750.667 371.3Z" stroke="#A5A5A5" stroke-linejoin="round" stroke-miterlimit="10" fill="#A5A5A5"/><path d="M799.5 349.967C799.5 351.808 798.008 353.3 796.167 353.3 794.326 353.3 792.833 351.808 792.833 349.967 792.833 348.126 794.326 346.633 796.167 346.633 798.008 346.633 799.5 348.126 799.5 349.967Z" stroke="#A5A5A5" stroke-linejoin="round" stroke-miterlimit="10" fill="#A5A5A5"/><path d="M848.333 326.8C848.333 328.641 846.841 330.133 845 330.133 843.159 330.133 841.667 328.641 841.667 326.8 841.667 324.959 843.159 323.467 845 323.467 846.841 323.467 848.333 324.959 848.333 326.8Z" stroke="#A5A5A5" stroke-linejoin="round" stroke-miterlimit="10" fill="#A5A5A5"/><path d="M897.333 294.8C897.333 296.641 895.841 298.133 894 298.133 892.159 298.133 890.667 296.641 890.667 294.8 890.667 292.959 892.159 291.467 894 291.467 895.841 291.467 897.333 292.959 897.333 294.8Z" stroke="#A5A5A5" stroke-linejoin="round" stroke-miterlimit="10" fill="#A5A5A5"/><path d="M946.167 267.467C946.167 269.308 944.674 270.8 942.833 270.8 940.992 270.8 939.5 269.308 939.5 267.467 939.5 265.626 940.992 264.133 942.833 264.133 944.674 264.133 946.167 265.626 946.167 267.467Z" stroke="#A5A5A5" stroke-linejoin="round" stroke-miterlimit="10" fill="#A5A5A5"/><path d="M995 244.633C995 246.474 993.508 247.967 991.667 247.967 989.826 247.967 988.333 246.474 988.333 244.633 988.333 242.792 989.826 241.3 991.667 241.3 993.508 241.3 995 242.792 995 244.633Z" stroke="#A5A5A5" stroke-linejoin="round" stroke-miterlimit="10" fill="#A5A5A5"/><path d="M1044 220.3C1044 222.141 1042.51 223.633 1040.67 223.633 1038.83 223.633 1037.33 222.141 1037.33 220.3 1037.33 218.459 1038.83 216.967 1040.67 216.967 1042.51 216.967 1044 218.459 1044 220.3Z" stroke="#A5A5A5" stroke-linejoin="round" stroke-miterlimit="10" fill="#A5A5A5"/><path d="M1092.83 203.467C1092.83 205.308 1091.34 206.8 1089.5 206.8 1087.66 206.8 1086.17 205.308 1086.17 203.467 1086.17 201.626 1087.66 200.133 1089.5 200.133 1091.34 200.133 1092.83 201.626 1092.83 203.467Z" stroke="#A5A5A5" stroke-linejoin="round" stroke-miterlimit="10" fill="#A5A5A5"/><path d="M1141.67 170.8C1141.67 172.641 1140.17 174.133 1138.33 174.133 1136.49 174.133 1135 172.641 1135 170.8 1135 168.959 1136.49 167.467 1138.33 167.467 1140.17 167.467 1141.67 168.959 1141.67 170.8Z" stroke="#A5A5A5" stroke-linejoin="round" stroke-miterlimit="10" fill="#A5A5A5"/><path d="M1190.67 123.133C1190.67 124.974 1189.17 126.467 1187.33 126.467 1185.49 126.467 1184 124.974 1184 123.133 1184 121.292 1185.49 119.8 1187.33 119.8 1189.17 119.8 1190.67 121.292 1190.67 123.133Z" stroke="#A5A5A5" stroke-linejoin="round" stroke-miterlimit="10" fill="#A5A5A5"/></g><g><text fill="#595959" font-family="Calibri,Calibri_MSFontService,sans-serif" font-weight="400" font-size="12" transform="translate(681.18 394)">0</text></g><g><text fill="#595959" font-family="Calibri,Calibri_MSFontService,sans-serif" font-weight="400" font-size="12" transform="translate(662.94 347)">1000</text></g><g><text fill="#595959" font-family="Calibri,Calibri_MSFontService,sans-serif" font-weight="400" font-size="12" transform="translate(662.94 299)">2000</text></g><g><text fill="#595959" font-family="Calibri,Calibri_MSFontService,sans-serif" font-weight="400" font-size="12" transform="translate(662.94 251)">3000</text></g><g><text fill="#595959" font-family="Calibri,Calibri_MSFontService,sans-serif" font-weight="400" font-size="12" transform="translate(662.94 204)">4000</text></g><g><text fill="#595959" font-family="Calibri,Calibri_MSFontService,sans-serif" font-weight="400" font-size="12" transform="translate(662.94 156)">5000</text></g><g><text fill="#595959" font-family="Calibri,Calibri_MSFontService,sans-serif" font-weight="400" font-size="12" transform="translate(662.94 109)">6000</text></g><g><text fill="#595959" font-family="Calibri,Calibri_MSFontService,sans-serif" font-weight="400" font-size="12" transform="translate(695.352 410)">0</text></g><g><text fill="#595959" font-family="Calibri,Calibri_MSFontService,sans-serif" font-weight="400" font-size="12" transform="translate(777.929 410)">200000</text></g><g><text fill="#595959" font-family="Calibri,Calibri_MSFontService,sans-serif" font-weight="400" font-size="12" transform="translate(875.706 410)">400000</text></g><g><text fill="#595959" font-family="Calibri,Calibri_MSFontService,sans-serif" font-weight="400" font-size="12" transform="translate(973.483 410)">600000</text></g><g><text fill="#595959" font-family="Calibri,Calibri_MSFontService,sans-serif" font-weight="400" font-size="12" transform="translate(1071.26 410)">800000</text></g><g><text fill="#595959" font-family="Calibri,Calibri_MSFontService,sans-serif" font-weight="400" font-size="12" transform="translate(1166 410)">1000000</text></g><g><text fill="#595959" font-family="Calibri,Calibri_MSFontService,sans-serif" font-weight="400" font-size="12" transform="translate(1263.77 410)">1200000</text></g><g><text fill="#595959" font-family="Calibri,Calibri_MSFontService,sans-serif" font-weight="700" font-size="13" transform="matrix(6.12323e-17 -1 1 6.12323e-17 655.667 278)">durée (ms)</text></g><g><text fill="#595959" font-family="Calibri,Calibri_MSFontService,sans-serif" font-weight="400" font-size="13" transform="translate(937.803 430)">Nombre d'éléments</text></g><g><text fill="#595959" font-family="Calibri,Calibri_MSFontService,sans-serif" font-weight="700" font-size="19" transform="translate(705.403 61)">Durées d'exécution des différentes méthodes de</text></g><g><text fill="#595959" font-family="Calibri,Calibri_MSFontService,sans-serif" font-weight="700" font-size="19" transform="translate(1083.55 61)">mémoïsation</text></g><g><text fill="#595959" font-family="Calibri,Calibri_MSFontService,sans-serif" font-weight="700" font-size="19" transform="translate(1189.76 61)">du SSP</text></g><g><text fill="#595959" font-family="Calibri,Calibri_MSFontService,sans-serif" font-weight="700" font-size="19" transform="translate(809.737 84)">selon la cardinalité de l'ensemble d'entrée</text></g><g><path d="M759 462 785 462" stroke="#4472C4" stroke-width="2" stroke-linecap="round" stroke-linejoin="round" stroke-miterlimit="10" fill="none" fill-rule="evenodd"/></g><g><path d="M775.5 461.5C775.5 463.157 773.933 464.5 772 464.5 770.067 464.5 768.5 463.157 768.5 461.5 768.5 459.843 770.067 458.5 772 458.5 773.933 458.5 775.5 459.843 775.5 461.5Z" stroke="#4472C4" stroke-linejoin="round" stroke-miterlimit="10" fill="#4472C4"/></g><g><text fill="#595959" font-family="Calibri,Calibri_MSFontService,sans-serif" font-weight="400" font-size="12" transform="translate(787.323 465)">séquentielle récursive</text></g><g><path d="M918 462 944 462" stroke="#ED7D31" stroke-width="2" stroke-linecap="round" stroke-linejoin="round" stroke-miterlimit="10" fill="none" fill-rule="evenodd"/></g><g><path d="M934.5 461.5C934.5 463.157 932.933 464.5 931 464.5 929.067 464.5 927.5 463.157 927.5 461.5 927.5 459.843 929.067 458.5 931 458.5 932.933 458.5 934.5 459.843 934.5 461.5Z" stroke="#ED7D31" stroke-linejoin="round" stroke-miterlimit="10" fill="#ED7D31"/></g><g><text fill="#595959" font-family="Calibri,Calibri_MSFontService,sans-serif" font-weight="400" font-size="12" transform="translate(946.27 465)">séquentielle itérative</text></g><g><path d="M1076 462 1102 462" stroke="#A5A5A5" stroke-width="2" stroke-linecap="round" stroke-linejoin="round" stroke-miterlimit="10" fill="none" fill-rule="evenodd"/></g><g><path d="M1092.5 461.5C1092.5 463.157 1090.93 464.5 1089 464.5 1087.07 464.5 1085.5 463.157 1085.5 461.5 1085.5 459.843 1087.07 458.5 1089 458.5 1090.93 458.5 1092.5 459.843 1092.5 461.5Z" stroke="#A5A5A5" stroke-linejoin="round" stroke-miterlimit="10" fill="#A5A5A5"/></g><g><text fill="#595959" font-family="Calibri,Calibri_MSFontService,sans-serif" font-weight="400" font-size="12" transform="translate(1104.21 465)">parallèle itérative</text></g></g></svg>