<svg width="740" height="449" xmlns="http://www.w3.org/2000/svg" xmlns:xlink="http://www.w3.org/1999/xlink" overflow="hidden"><defs><clipPath id="clip0"><rect x="36" y="470" width="740" height="449"/></clipPath></defs><g clip-path="url(#clip0)" transform="translate(-36 -470)"><g><path d="M103.5 819.5 758.5 819.5M103.5 779.5 758.5 779.5M103.5 740.5 758.5 740.5M103.5 700.5 758.5 700.5M103.5 661.5 758.5 661.5M103.5 621.5 758.5 621.5M103.5 582.5 758.5 582.5M103.5 542.5 758.5 542.5" stroke="#D9D9D9" stroke-linejoin="round" stroke-miterlimit="10" fill="none"/></g><g><path d="M176.5 542.5 176.5 858.5M248.5 542.5 248.5 858.5M321.5 542.5 321.5 858.5M394.5 542.5 394.5 858.5M467.5 542.5 467.5 858.5M539.5 542.5 539.5 858.5M612.5 542.5 612.5 858.5M685.5 542.5 685.5 858.5M758.5 542.5 758.5 858.5" stroke="#D9D9D9" stroke-linejoin="round" stroke-miterlimit="10" fill="none"/></g><g><path d="M0 0 0.000104987 316" stroke="#BFBFBF" stroke-linejoin="round" stroke-miterlimit="10" fill="none" fill-rule="evenodd" transform="matrix(1 0 0 -1 103.5 858.5)"/></g><g><path d="M103.5 858.5 758.5 858.5" stroke="#BFBFBF" stroke-linejoin="round" stroke-miterlimit="10" fill="none" fill-rule="evenodd"/></g><g><path d="M176 587 249 677 322 625 394 738 467 690 540 672 613 714 685 705" stroke="#4472C4" stroke-width="2" stroke-linecap="round" stroke-linejoin="round" stroke-miterlimit="10" fill="none"/></g><g><path d="M179.333 587.433C179.333 589.274 177.841 590.767 176 590.767 174.159 590.767 172.667 589.274 172.667 587.433 172.667 585.592 174.159 584.1 176 584.1 177.841 584.1 179.333 585.592 179.333 587.433Z" stroke="#4472C4" stroke-linejoin="round" stroke-miterlimit="10" fill="#4472C4"/><path d="M252.167 677.1C252.167 678.941 250.674 680.433 248.833 680.433 246.992 680.433 245.5 678.941 245.5 677.1 245.5 675.259 246.992 673.767 248.833 673.767 250.674 673.767 252.167 675.259 252.167 677.1Z" stroke="#4472C4" stroke-linejoin="round" stroke-miterlimit="10" fill="#4472C4"/><path d="M324.833 625.267C324.833 627.108 323.341 628.6 321.5 628.6 319.659 628.6 318.167 627.108 318.167 625.267 318.167 623.426 319.659 621.933 321.5 621.933 323.341 621.933 324.833 623.426 324.833 625.267Z" stroke="#4472C4" stroke-linejoin="round" stroke-miterlimit="10" fill="#4472C4"/><path d="M397.667 738.267C397.667 740.108 396.174 741.6 394.333 741.6 392.492 741.6 391 740.108 391 738.267 391 736.426 392.492 734.933 394.333 734.933 396.174 734.933 397.667 736.426 397.667 738.267Z" stroke="#4472C4" stroke-linejoin="round" stroke-miterlimit="10" fill="#4472C4"/><path d="M470.333 690.1C470.333 691.941 468.841 693.433 467 693.433 465.159 693.433 463.667 691.941 463.667 690.1 463.667 688.259 465.159 686.767 467 686.767 468.841 686.767 470.333 688.259 470.333 690.1Z" stroke="#4472C4" stroke-linejoin="round" stroke-miterlimit="10" fill="#4472C4"/><path d="M543.167 672.433C543.167 674.274 541.674 675.767 539.833 675.767 537.992 675.767 536.5 674.274 536.5 672.433 536.5 670.592 537.992 669.1 539.833 669.1 541.674 669.1 543.167 670.592 543.167 672.433Z" stroke="#4472C4" stroke-linejoin="round" stroke-miterlimit="10" fill="#4472C4"/><path d="M615.833 714.267C615.833 716.108 614.341 717.6 612.5 717.6 610.659 717.6 609.167 716.108 609.167 714.267 609.167 712.426 610.659 710.933 612.5 710.933 614.341 710.933 615.833 712.426 615.833 714.267Z" stroke="#4472C4" stroke-linejoin="round" stroke-miterlimit="10" fill="#4472C4"/><path d="M688.667 704.767C688.667 706.608 687.174 708.1 685.333 708.1 683.492 708.1 682 706.608 682 704.767 682 702.926 683.492 701.433 685.333 701.433 687.174 701.433 688.667 702.926 688.667 704.767Z" stroke="#4472C4" stroke-linejoin="round" stroke-miterlimit="10" fill="#4472C4"/></g><g><text fill="#595959" font-family="Calibri,Calibri_MSFontService,sans-serif" font-weight="400" font-size="12" transform="translate(86.1001 862)">0</text></g><g><text fill="#595959" font-family="Calibri,Calibri_MSFontService,sans-serif" font-weight="400" font-size="12" transform="translate(73.9401 822)">100</text></g><g><text fill="#595959" font-family="Calibri,Calibri_MSFontService,sans-serif" font-weight="400" font-size="12" transform="translate(73.9401 783)">200</text></g><g><text fill="#595959" font-family="Calibri,Calibri_MSFontService,sans-serif" font-weight="400" font-size="12" transform="translate(73.9401 743)">300</text></g><g><text fill="#595959" font-family="Calibri,Calibri_MSFontService,sans-serif" font-weight="400" font-size="12" transform="translate(73.9401 704)">400</text></g><g><text fill="#595959" font-family="Calibri,Calibri_MSFontService,sans-serif" font-weight="400" font-size="12" transform="translate(73.9401 664)">500</text></g><g><text fill="#595959" font-family="Calibri,Calibri_MSFontService,sans-serif" font-weight="400" font-size="12" transform="translate(73.9401 625)">600</text></g><g><text fill="#595959" font-family="Calibri,Calibri_MSFontService,sans-serif" font-weight="400" font-size="12" transform="translate(73.9401 585)">700</text></g><g><text fill="#595959" font-family="Calibri,Calibri_MSFontService,sans-serif" font-weight="400" font-size="12" transform="translate(73.9401 546)">800</text></g><g><text fill="#595959" font-family="Calibri,Calibri_MSFontService,sans-serif" font-weight="400" font-size="12" transform="translate(100.272 878)">0</text></g><g><text fill="#595959" font-family="Calibri,Calibri_MSFontService,sans-serif" font-weight="400" font-size="12" transform="translate(173.019 878)">1</text></g><g><text fill="#595959" font-family="Calibri,Calibri_MSFontService,sans-serif" font-weight="400" font-size="12" transform="translate(245.766 878)">2</text></g><g><text fill="#595959" font-family="Calibri,Calibri_MSFontService,sans-serif" font-weight="400" font-size="12" transform="translate(318.513 878)">3</text></g><g><text fill="#595959" font-family="Calibri,Calibri_MSFontService,sans-serif" font-weight="400" font-size="12" transform="translate(391.26 878)">4</text></g><g><text fill="#595959" font-family="Calibri,Calibri_MSFontService,sans-serif" font-weight="400" font-size="12" transform="translate(464.007 878)">5</text></g><g><text fill="#595959" font-family="Calibri,Calibri_MSFontService,sans-serif" font-weight="400" font-size="12" transform="translate(536.754 878)">6</text></g><g><text fill="#595959" font-family="Calibri,Calibri_MSFontService,sans-serif" font-weight="400" font-size="12" transform="translate(609.501 878)">7</text></g><g><text fill="#595959" font-family="Calibri,Calibri_MSFontService,sans-serif" font-weight="400" font-size="12" transform="translate(682.248 878)">8</text></g><g><text fill="#595959" font-family="Calibri,Calibri_MSFontService,sans-serif" font-weight="400" font-size="12" transform="translate(754.995 878)">9</text></g><g><text fill="#595959" font-family="Calibri,Calibri_MSFontService,sans-serif" font-weight="700" font-size="13" transform="matrix(6.12323e-17 -1 1 6.12323e-17 66.6667 731)">durée</text></g><g><text fill="#595959" font-family="Calibri,Calibri_MSFontService,sans-serif" font-weight="700" font-size="13" transform="matrix(6.12323e-17 -1 1 6.12323e-17 66.6667 695)">(ms</text></g><g><text fill="#595959" font-family="Calibri,Calibri_MSFontService,sans-serif" font-weight="700" font-size="13" transform="matrix(6.12323e-17 -1 1 6.12323e-17 66.6667 675)">)</text></g><g><text fill="#595959" font-family="Calibri,Calibri_MSFontService,sans-serif" font-weight="700" font-size="13" transform="translate(376.887 898)">Nombre de threads</text></g><g><text fill="#595959" font-family="Calibri,Calibri_MSFontService,sans-serif" font-weight="700" font-size="19" transform="translate(136.728 499)">Durées d'exécution de la méthode de mémoïsation parallèle itérative</text></g><g><text fill="#595959" font-family="Calibri,Calibri_MSFontService,sans-serif" font-weight="700" font-size="19" transform="translate(271.054 522)">selon le nombre de threads utilisés</text></g></g></svg>