<svg width="642" height="440" xmlns="http://www.w3.org/2000/svg" xmlns:xlink="http://www.w3.org/1999/xlink" overflow="hidden"><defs><clipPath id="clip0"><rect x="12" y="25" width="642" height="440"/></clipPath></defs><g clip-path="url(#clip0)" transform="translate(-12 -25)"><g><path d="M84.5001 343.5 617.5 343.5M84.5001 313.5 617.5 313.5M84.5001 282.5 617.5 282.5M84.5001 251.5 617.5 251.5M84.5001 220.5 617.5 220.5M84.5001 189.5 617.5 189.5M84.5001 159.5 617.5 159.5M84.5001 128.5 617.5 128.5M84.5001 97.5001 617.5 97.5001" stroke="#D9D9D9" stroke-linejoin="round" stroke-miterlimit="10" fill="none"/></g><g><path d="M173.5 97.5001 173.5 374.5M262.5 97.5001 262.5 374.5M351.5 97.5001 351.5 374.5M439.5 97.5001 439.5 374.5M528.5 97.5001 528.5 374.5M617.5 97.5001 617.5 374.5" stroke="#D9D9D9" stroke-linejoin="round" stroke-miterlimit="10" fill="none"/></g><g><path d="M0 0 0.000104987 277" stroke="#BFBFBF" stroke-linejoin="round" stroke-miterlimit="10" fill="none" fill-rule="evenodd" transform="matrix(1 0 0 -1 84.5001 374.5)"/></g><g><path d="M84.5001 374.5 617.5 374.5" stroke="#BFBFBF" stroke-linejoin="round" stroke-miterlimit="10" fill="none" fill-rule="evenodd"/></g><g><path d="M85 375 85 375 85 375 85 375 85 375 85 375 85 375 85 375 85 375 85 375 85 375 85 375 85 375 85 375 85 375 85 375 85 375 85 375 85 375 86 375 86 375 86 375 87 375 87 375 88 375 88 375 89 375 89 375 94 375 98 375 102 375 107 375 111 375 116 375 120 375 125 375 129 375 173 374 218 375 262 374 307 375 351 374 395 375 440 374 484 375 529 375" stroke="#4472C4" stroke-width="2" stroke-linecap="round" stroke-linejoin="round" stroke-miterlimit="10" fill="none"/></g><g><path d="M87.9666 374.633C87.9666 376.474 86.4742 377.967 84.6333 377.967 82.7923 377.967 81.2999 376.474 81.2999 374.633 81.2999 372.792 82.7923 371.3 84.6333 371.3 86.4742 371.3 87.9666 372.792 87.9666 374.633Z" stroke="#4472C4" stroke-linejoin="round" stroke-miterlimit="10" fill="#4472C4"/><path d="M87.9666 374.633C87.9666 376.474 86.4742 377.967 84.6333 377.967 82.7923 377.967 81.2999 376.474 81.2999 374.633 81.2999 372.792 82.7923 371.3 84.6333 371.3 86.4742 371.3 87.9666 372.792 87.9666 374.633Z" stroke="#4472C4" stroke-linejoin="round" stroke-miterlimit="10" fill="#4472C4"/><path d="M87.9666 374.633C87.9666 376.474 86.4742 377.967 84.6333 377.967 82.7923 377.967 81.2999 376.474 81.2999 374.633 81.2999 372.792 82.7923 371.3 84.6333 371.3 86.4742 371.3 87.9666 372.792 87.9666 374.633Z" stroke="#4472C4" stroke-linejoin="round" stroke-miterlimit="10" fill="#4472C4"/><path d="M87.9666 374.633C87.9666 376.474 86.4742 377.967 84.6333 377.967 82.7923 377.967 81.2999 376.474 81.2999 374.633 81.2999 372.792 82.7923 371.3 84.6333 371.3 86.4742 371.3 87.9666 372.792 87.9666 374.633Z" stroke="#4472C4" stroke-linejoin="round" stroke-miterlimit="10" fill="#4472C4"/><path d="M87.9666 374.633C87.9666 376.474 86.4742 377.967 84.6333 377.967 82.7923 377.967 81.2999 376.474 81.2999 374.633 81.2999 372.792 82.7923 371.3 84.6333 371.3 86.4742 371.3 87.9666 372.792 87.9666 374.633Z" stroke="#4472C4" stroke-linejoin="round" stroke-miterlimit="10" fill="#4472C4"/><path d="M87.9666 374.467C87.9666 376.308 86.4742 377.8 84.6333 377.8 82.7923 377.8 81.2999 376.308 81.2999 374.467 81.2999 372.626 82.7923 371.133 84.6333 371.133 86.4742 371.133 87.9666 372.626 87.9666 374.467Z" stroke="#4472C4" stroke-linejoin="round" stroke-miterlimit="10" fill="#4472C4"/><path d="M87.9666 374.633C87.9666 376.474 86.4742 377.967 84.6333 377.967 82.7923 377.967 81.2999 376.474 81.2999 374.633 81.2999 372.792 82.7923 371.3 84.6333 371.3 86.4742 371.3 87.9666 372.792 87.9666 374.633Z" stroke="#4472C4" stroke-linejoin="round" stroke-miterlimit="10" fill="#4472C4"/><path d="M87.9666 374.633C87.9666 376.474 86.4742 377.967 84.6333 377.967 82.7923 377.967 81.2999 376.474 81.2999 374.633 81.2999 372.792 82.7923 371.3 84.6333 371.3 86.4742 371.3 87.9666 372.792 87.9666 374.633Z" stroke="#4472C4" stroke-linejoin="round" stroke-miterlimit="10" fill="#4472C4"/><path d="M87.9666 374.633C87.9666 376.474 86.4742 377.967 84.6333 377.967 82.7923 377.967 81.2999 376.474 81.2999 374.633 81.2999 372.792 82.7923 371.3 84.6333 371.3 86.4742 371.3 87.9666 372.792 87.9666 374.633Z" stroke="#4472C4" stroke-linejoin="round" stroke-miterlimit="10" fill="#4472C4"/><path d="M87.9666 374.633C87.9666 376.474 86.4742 377.967 84.6333 377.967 82.7923 377.967 81.2999 376.474 81.2999 374.633 81.2999 372.792 82.7923 371.3 84.6333 371.3 86.4742 371.3 87.9666 372.792 87.9666 374.633Z" stroke="#4472C4" stroke-linejoin="round" stroke-miterlimit="10" fill="#4472C4"/><path d="M88.1332 374.633C88.1332 376.474 86.6408 377.967 84.7999 377.967 82.9589 377.967 81.4666 376.474 81.4666 374.633 81.4666 372.792 82.9589 371.3 84.7999 371.3 86.6408 371.3 88.1332 372.792 88.1332 374.633Z" stroke="#4472C4" stroke-linejoin="round" stroke-miterlimit="10" fill="#4472C4"/><path d="M88.1332 374.633C88.1332 376.474 86.6408 377.967 84.7999 377.967 82.9589 377.967 81.4666 376.474 81.4666 374.633 81.4666 372.792 82.9589 371.3 84.7999 371.3 86.6408 371.3 88.1332 372.792 88.1332 374.633Z" stroke="#4472C4" stroke-linejoin="round" stroke-miterlimit="10" fill="#4472C4"/><path d="M88.1332 374.633C88.1332 376.474 86.6408 377.967 84.7999 377.967 82.9589 377.967 81.4666 376.474 81.4666 374.633 81.4666 372.792 82.9589 371.3 84.7999 371.3 86.6408 371.3 88.1332 372.792 88.1332 374.633Z" stroke="#4472C4" stroke-linejoin="round" stroke-miterlimit="10" fill="#4472C4"/><path d="M88.1332 374.633C88.1332 376.474 86.6408 377.967 84.7999 377.967 82.9589 377.967 81.4666 376.474 81.4666 374.633 81.4666 372.792 82.9589 371.3 84.7999 371.3 86.6408 371.3 88.1332 372.792 88.1332 374.633Z" stroke="#4472C4" stroke-linejoin="round" stroke-miterlimit="10" fill="#4472C4"/><path d="M88.2999 374.633C88.2999 376.474 86.8076 377.967 84.9666 377.967 83.1257 377.967 81.6333 376.474 81.6333 374.633 81.6333 372.792 83.1257 371.3 84.9666 371.3 86.8076 371.3 88.2999 372.792 88.2999 374.633Z" stroke="#4472C4" stroke-linejoin="round" stroke-miterlimit="10" fill="#4472C4"/><path d="M88.2999 374.633C88.2999 376.474 86.8076 377.967 84.9666 377.967 83.1257 377.967 81.6333 376.474 81.6333 374.633 81.6333 372.792 83.1257 371.3 84.9666 371.3 86.8076 371.3 88.2999 372.792 88.2999 374.633Z" stroke="#4472C4" stroke-linejoin="round" stroke-miterlimit="10" fill="#4472C4"/><path d="M88.2999 374.633C88.2999 376.474 86.8076 377.967 84.9666 377.967 83.1257 377.967 81.6333 376.474 81.6333 374.633 81.6333 372.792 83.1257 371.3 84.9666 371.3 86.8076 371.3 88.2999 372.792 88.2999 374.633Z" stroke="#4472C4" stroke-linejoin="round" stroke-miterlimit="10" fill="#4472C4"/><path d="M88.4666 374.633C88.4666 376.474 86.9742 377.967 85.1332 377.967 83.2923 377.967 81.7999 376.474 81.7999 374.633 81.7999 372.792 83.2923 371.3 85.1332 371.3 86.9742 371.3 88.4666 372.792 88.4666 374.633Z" stroke="#4472C4" stroke-linejoin="round" stroke-miterlimit="10" fill="#4472C4"/><path d="M88.4666 374.633C88.4666 376.474 86.9742 377.967 85.1332 377.967 83.2923 377.967 81.7999 376.474 81.7999 374.633 81.7999 372.792 83.2923 371.3 85.1332 371.3 86.9742 371.3 88.4666 372.792 88.4666 374.633Z" stroke="#4472C4" stroke-linejoin="round" stroke-miterlimit="10" fill="#4472C4"/><path d="M88.7999 374.633C88.7999 376.474 87.3075 377.967 85.4666 377.967 83.6256 377.967 82.1332 376.474 82.1332 374.633 82.1332 372.792 83.6256 371.3 85.4666 371.3 87.3075 371.3 88.7999 372.792 88.7999 374.633Z" stroke="#4472C4" stroke-linejoin="round" stroke-miterlimit="10" fill="#4472C4"/><path d="M89.2999 374.633C89.2999 376.474 87.8076 377.967 85.9666 377.967 84.1257 377.967 82.6333 376.474 82.6333 374.633 82.6333 372.792 84.1257 371.3 85.9666 371.3 87.8076 371.3 89.2999 372.792 89.2999 374.633Z" stroke="#4472C4" stroke-linejoin="round" stroke-miterlimit="10" fill="#4472C4"/><path d="M89.7999 374.633C89.7999 376.474 88.3075 377.967 86.4666 377.967 84.6256 377.967 83.1332 376.474 83.1332 374.633 83.1332 372.792 84.6256 371.3 86.4666 371.3 88.3075 371.3 89.7999 372.792 89.7999 374.633Z" stroke="#4472C4" stroke-linejoin="round" stroke-miterlimit="10" fill="#4472C4"/><path d="M90.1332 374.633C90.1332 376.474 88.6408 377.967 86.7999 377.967 84.9589 377.967 83.4666 376.474 83.4666 374.633 83.4666 372.792 84.9589 371.3 86.7999 371.3 88.6408 371.3 90.1332 372.792 90.1332 374.633Z" stroke="#4472C4" stroke-linejoin="round" stroke-miterlimit="10" fill="#4472C4"/><path d="M90.6333 374.633C90.6333 376.474 89.1409 377.967 87.2999 377.967 85.459 377.967 83.9666 376.474 83.9666 374.633 83.9666 372.792 85.459 371.3 87.2999 371.3 89.1409 371.3 90.6333 372.792 90.6333 374.633Z" stroke="#4472C4" stroke-linejoin="round" stroke-miterlimit="10" fill="#4472C4"/><path d="M91.1332 374.467C91.1332 376.308 89.6408 377.8 87.7999 377.8 85.9589 377.8 84.4666 376.308 84.4666 374.467 84.4666 372.626 85.9589 371.133 87.7999 371.133 89.6408 371.133 91.1332 372.626 91.1332 374.467Z" stroke="#4472C4" stroke-linejoin="round" stroke-miterlimit="10" fill="#4472C4"/><path d="M91.4666 374.633C91.4666 376.474 89.9742 377.967 88.1332 377.967 86.2923 377.967 84.7999 376.474 84.7999 374.633 84.7999 372.792 86.2923 371.3 88.1332 371.3 89.9742 371.3 91.4666 372.792 91.4666 374.633Z" stroke="#4472C4" stroke-linejoin="round" stroke-miterlimit="10" fill="#4472C4"/><path d="M91.9666 374.633C91.9666 376.474 90.4742 377.967 88.6333 377.967 86.7923 377.967 85.2999 376.474 85.2999 374.633 85.2999 372.792 86.7923 371.3 88.6333 371.3 90.4742 371.3 91.9666 372.792 91.9666 374.633Z" stroke="#4472C4" stroke-linejoin="round" stroke-miterlimit="10" fill="#4472C4"/><path d="M92.4666 374.633C92.4666 376.474 90.9742 377.967 89.1332 377.967 87.2923 377.967 85.7999 376.474 85.7999 374.633 85.7999 372.792 87.2923 371.3 89.1332 371.3 90.9742 371.3 92.4666 372.792 92.4666 374.633Z" stroke="#4472C4" stroke-linejoin="round" stroke-miterlimit="10" fill="#4472C4"/><path d="M96.7999 374.633C96.7999 376.474 95.3075 377.967 93.4666 377.967 91.6256 377.967 90.1332 376.474 90.1332 374.633 90.1332 372.792 91.6256 371.3 93.4666 371.3 95.3075 371.3 96.7999 372.792 96.7999 374.633Z" stroke="#4472C4" stroke-linejoin="round" stroke-miterlimit="10" fill="#4472C4"/><path d="M101.3 374.633C101.3 376.474 99.8076 377.967 97.9666 377.967 96.1257 377.967 94.6333 376.474 94.6333 374.633 94.6333 372.792 96.1257 371.3 97.9666 371.3 99.8076 371.3 101.3 372.792 101.3 374.633Z" stroke="#4472C4" stroke-linejoin="round" stroke-miterlimit="10" fill="#4472C4"/><path d="M105.8 374.467C105.8 376.308 104.308 377.8 102.467 377.8 100.626 377.8 99.1332 376.308 99.1332 374.467 99.1332 372.626 100.626 371.133 102.467 371.133 104.308 371.133 105.8 372.626 105.8 374.467Z" stroke="#4472C4" stroke-linejoin="round" stroke-miterlimit="10" fill="#4472C4"/><path d="M110.133 374.633C110.133 376.474 108.641 377.967 106.8 377.967 104.959 377.967 103.467 376.474 103.467 374.633 103.467 372.792 104.959 371.3 106.8 371.3 108.641 371.3 110.133 372.792 110.133 374.633Z" stroke="#4472C4" stroke-linejoin="round" stroke-miterlimit="10" fill="#4472C4"/><path d="M114.633 374.467C114.633 376.308 113.141 377.8 111.3 377.8 109.459 377.8 107.967 376.308 107.967 374.467 107.967 372.626 109.459 371.133 111.3 371.133 113.141 371.133 114.633 372.626 114.633 374.467Z" stroke="#4472C4" stroke-linejoin="round" stroke-miterlimit="10" fill="#4472C4"/><path d="M119.133 374.467C119.133 376.308 117.641 377.8 115.8 377.8 113.959 377.8 112.467 376.308 112.467 374.467 112.467 372.626 113.959 371.133 115.8 371.133 117.641 371.133 119.133 372.626 119.133 374.467Z" stroke="#4472C4" stroke-linejoin="round" stroke-miterlimit="10" fill="#4472C4"/><path d="M123.467 374.633C123.467 376.474 121.974 377.967 120.133 377.967 118.292 377.967 116.8 376.474 116.8 374.633 116.8 372.792 118.292 371.3 120.133 371.3 121.974 371.3 123.467 372.792 123.467 374.633Z" stroke="#4472C4" stroke-linejoin="round" stroke-miterlimit="10" fill="#4472C4"/><path d="M127.967 374.467C127.967 376.308 126.474 377.8 124.633 377.8 122.792 377.8 121.3 376.308 121.3 374.467 121.3 372.626 122.792 371.133 124.633 371.133 126.474 371.133 127.967 372.626 127.967 374.467Z" stroke="#4472C4" stroke-linejoin="round" stroke-miterlimit="10" fill="#4472C4"/><path d="M132.3 374.467C132.3 376.308 130.808 377.8 128.967 377.8 127.126 377.8 125.633 376.308 125.633 374.467 125.633 372.626 127.126 371.133 128.967 371.133 130.808 371.133 132.3 372.626 132.3 374.467Z" stroke="#4472C4" stroke-linejoin="round" stroke-miterlimit="10" fill="#4472C4"/><path d="M176.8 374.467C176.8 376.308 175.308 377.8 173.467 377.8 171.626 377.8 170.133 376.308 170.133 374.467 170.133 372.626 171.626 371.133 173.467 371.133 175.308 371.133 176.8 372.626 176.8 374.467Z" stroke="#4472C4" stroke-linejoin="round" stroke-miterlimit="10" fill="#4472C4"/><path d="M221.133 374.633C221.133 376.474 219.641 377.967 217.8 377.967 215.959 377.967 214.467 376.474 214.467 374.633 214.467 372.792 215.959 371.3 217.8 371.3 219.641 371.3 221.133 372.792 221.133 374.633Z" stroke="#4472C4" stroke-linejoin="round" stroke-miterlimit="10" fill="#4472C4"/><path d="M265.467 374.3C265.467 376.141 263.974 377.633 262.133 377.633 260.292 377.633 258.8 376.141 258.8 374.3 258.8 372.459 260.292 370.967 262.133 370.967 263.974 370.967 265.467 372.459 265.467 374.3Z" stroke="#4472C4" stroke-linejoin="round" stroke-miterlimit="10" fill="#4472C4"/><path d="M309.967 374.467C309.967 376.308 308.474 377.8 306.633 377.8 304.792 377.8 303.3 376.308 303.3 374.467 303.3 372.626 304.792 371.133 306.633 371.133 308.474 371.133 309.967 372.626 309.967 374.467Z" stroke="#4472C4" stroke-linejoin="round" stroke-miterlimit="10" fill="#4472C4"/><path d="M354.3 374.133C354.3 375.974 352.808 377.467 350.967 377.467 349.126 377.467 347.633 375.974 347.633 374.133 347.633 372.292 349.126 370.8 350.967 370.8 352.808 370.8 354.3 372.292 354.3 374.133Z" stroke="#4472C4" stroke-linejoin="round" stroke-miterlimit="10" fill="#4472C4"/><path d="M398.633 374.467C398.633 376.308 397.141 377.8 395.3 377.8 393.459 377.8 391.967 376.308 391.967 374.467 391.967 372.626 393.459 371.133 395.3 371.133 397.141 371.133 398.633 372.626 398.633 374.467Z" stroke="#4472C4" stroke-linejoin="round" stroke-miterlimit="10" fill="#4472C4"/><path d="M443.133 374.3C443.133 376.141 441.641 377.633 439.8 377.633 437.959 377.633 436.467 376.141 436.467 374.3 436.467 372.459 437.959 370.967 439.8 370.967 441.641 370.967 443.133 372.459 443.133 374.3Z" stroke="#4472C4" stroke-linejoin="round" stroke-miterlimit="10" fill="#4472C4"/><path d="M487.467 374.633C487.467 376.474 485.974 377.967 484.133 377.967 482.292 377.967 480.8 376.474 480.8 374.633 480.8 372.792 482.292 371.3 484.133 371.3 485.974 371.3 487.467 372.792 487.467 374.633Z" stroke="#4472C4" stroke-linejoin="round" stroke-miterlimit="10" fill="#4472C4"/><path d="M531.8 374.467C531.8 376.308 530.307 377.8 528.467 377.8 526.626 377.8 525.133 376.308 525.133 374.467 525.133 372.626 526.626 371.133 528.467 371.133 530.307 371.133 531.8 372.626 531.8 374.467Z" stroke="#4472C4" stroke-linejoin="round" stroke-miterlimit="10" fill="#4472C4"/></g><g><path d="M85 375 85 375 85 375 85 375 85 375 85 375 85 375 85 375 85 375 85 375 85 375 85 375 85 375 85 374 85 374 85 374 85 374 85 374 85 374 86 374 86 374 86 374 87 374 87 374 88 373 88 373 89 373 89 373 94 371 98 369 102 367 107 365 111 363 116 361 120 359 125 357 129 355 173 335 218 294 262 253 307 259 351 234 395 207 440 196 484 141 529 129" stroke="#ED7D31" stroke-width="2" stroke-linecap="round" stroke-linejoin="round" stroke-miterlimit="10" fill="none"/></g><g><path d="M87.9666 374.633C87.9666 376.474 86.4742 377.967 84.6333 377.967 82.7923 377.967 81.2999 376.474 81.2999 374.633 81.2999 372.792 82.7923 371.3 84.6333 371.3 86.4742 371.3 87.9666 372.792 87.9666 374.633Z" stroke="#ED7D31" stroke-linejoin="round" stroke-miterlimit="10" fill="#ED7D31"/><path d="M87.9666 374.633C87.9666 376.474 86.4742 377.967 84.6333 377.967 82.7923 377.967 81.2999 376.474 81.2999 374.633 81.2999 372.792 82.7923 371.3 84.6333 371.3 86.4742 371.3 87.9666 372.792 87.9666 374.633Z" stroke="#ED7D31" stroke-linejoin="round" stroke-miterlimit="10" fill="#ED7D31"/><path d="M87.9666 374.633C87.9666 376.474 86.4742 377.967 84.6333 377.967 82.7923 377.967 81.2999 376.474 81.2999 374.633 81.2999 372.792 82.7923 371.3 84.6333 371.3 86.4742 371.3 87.9666 372.792 87.9666 374.633Z" stroke="#ED7D31" stroke-linejoin="round" stroke-miterlimit="10" fill="#ED7D31"/><path d="M87.9666 374.633C87.9666 376.474 86.4742 377.967 84.6333 377.967 82.7923 377.967 81.2999 376.474 81.2999 374.633 81.2999 372.792 82.7923 371.3 84.6333 371.3 86.4742 371.3 87.9666 372.792 87.9666 374.633Z" stroke="#ED7D31" stroke-linejoin="round" stroke-miterlimit="10" fill="#ED7D31"/><path d="M87.9666 374.633C87.9666 376.474 86.4742 377.967 84.6333 377.967 82.7923 377.967 81.2999 376.474 81.2999 374.633 81.2999 372.792 82.7923 371.3 84.6333 371.3 86.4742 371.3 87.9666 372.792 87.9666 374.633Z" stroke="#ED7D31" stroke-linejoin="round" stroke-miterlimit="10" fill="#ED7D31"/><path d="M87.9666 374.633C87.9666 376.474 86.4742 377.967 84.6333 377.967 82.7923 377.967 81.2999 376.474 81.2999 374.633 81.2999 372.792 82.7923 371.3 84.6333 371.3 86.4742 371.3 87.9666 372.792 87.9666 374.633Z" stroke="#ED7D31" stroke-linejoin="round" stroke-miterlimit="10" fill="#ED7D31"/><path d="M87.9666 374.633C87.9666 376.474 86.4742 377.967 84.6333 377.967 82.7923 377.967 81.2999 376.474 81.2999 374.633 81.2999 372.792 82.7923 371.3 84.6333 371.3 86.4742 371.3 87.9666 372.792 87.9666 374.633Z" stroke="#ED7D31" stroke-linejoin="round" stroke-miterlimit="10" fill="#ED7D31"/><path d="M87.9666 374.633C87.9666 376.474 86.4742 377.967 84.6333 377.967 82.7923 377.967 81.2999 376.474 81.2999 374.633 81.2999 372.792 82.7923 371.3 84.6333 371.3 86.4742 371.3 87.9666 372.792 87.9666 374.633Z" stroke="#ED7D31" stroke-linejoin="round" stroke-miterlimit="10" fill="#ED7D31"/><path d="M87.9666 374.467C87.9666 376.308 86.4742 377.8 84.6333 377.8 82.7923 377.8 81.2999 376.308 81.2999 374.467 81.2999 372.626 82.7923 371.133 84.6333 371.133 86.4742 371.133 87.9666 372.626 87.9666 374.467Z" stroke="#ED7D31" stroke-linejoin="round" stroke-miterlimit="10" fill="#ED7D31"/><path d="M87.9666 374.633C87.9666 376.474 86.4742 377.967 84.6333 377.967 82.7923 377.967 81.2999 376.474 81.2999 374.633 81.2999 372.792 82.7923 371.3 84.6333 371.3 86.4742 371.3 87.9666 372.792 87.9666 374.633Z" stroke="#ED7D31" stroke-linejoin="round" stroke-miterlimit="10" fill="#ED7D31"/><path d="M88.1332 374.467C88.1332 376.308 86.6408 377.8 84.7999 377.8 82.9589 377.8 81.4666 376.308 81.4666 374.467 81.4666 372.626 82.9589 371.133 84.7999 371.133 86.6408 371.133 88.1332 372.626 88.1332 374.467Z" stroke="#ED7D31" stroke-linejoin="round" stroke-miterlimit="10" fill="#ED7D31"/><path d="M88.1332 374.467C88.1332 376.308 86.6408 377.8 84.7999 377.8 82.9589 377.8 81.4666 376.308 81.4666 374.467 81.4666 372.626 82.9589 371.133 84.7999 371.133 86.6408 371.133 88.1332 372.626 88.1332 374.467Z" stroke="#ED7D31" stroke-linejoin="round" stroke-miterlimit="10" fill="#ED7D31"/><path d="M88.1332 374.467C88.1332 376.308 86.6408 377.8 84.7999 377.8 82.9589 377.8 81.4666 376.308 81.4666 374.467 81.4666 372.626 82.9589 371.133 84.7999 371.133 86.6408 371.133 88.1332 372.626 88.1332 374.467Z" stroke="#ED7D31" stroke-linejoin="round" stroke-miterlimit="10" fill="#ED7D31"/><path d="M88.1332 374.467C88.1332 376.308 86.6408 377.8 84.7999 377.8 82.9589 377.8 81.4666 376.308 81.4666 374.467 81.4666 372.626 82.9589 371.133 84.7999 371.133 86.6408 371.133 88.1332 372.626 88.1332 374.467Z" stroke="#ED7D31" stroke-linejoin="round" stroke-miterlimit="10" fill="#ED7D31"/><path d="M88.2999 374.467C88.2999 376.308 86.8076 377.8 84.9666 377.8 83.1257 377.8 81.6333 376.308 81.6333 374.467 81.6333 372.626 83.1257 371.133 84.9666 371.133 86.8076 371.133 88.2999 372.626 88.2999 374.467Z" stroke="#ED7D31" stroke-linejoin="round" stroke-miterlimit="10" fill="#ED7D31"/><path d="M88.2999 374.467C88.2999 376.308 86.8076 377.8 84.9666 377.8 83.1257 377.8 81.6333 376.308 81.6333 374.467 81.6333 372.626 83.1257 371.133 84.9666 371.133 86.8076 371.133 88.2999 372.626 88.2999 374.467Z" stroke="#ED7D31" stroke-linejoin="round" stroke-miterlimit="10" fill="#ED7D31"/><path d="M88.2999 374.3C88.2999 376.141 86.8076 377.633 84.9666 377.633 83.1257 377.633 81.6333 376.141 81.6333 374.3 81.6333 372.459 83.1257 370.967 84.9666 370.967 86.8076 370.967 88.2999 372.459 88.2999 374.3Z" stroke="#ED7D31" stroke-linejoin="round" stroke-miterlimit="10" fill="#ED7D31"/><path d="M88.4666 374.467C88.4666 376.308 86.9742 377.8 85.1332 377.8 83.2923 377.8 81.7999 376.308 81.7999 374.467 81.7999 372.626 83.2923 371.133 85.1332 371.133 86.9742 371.133 88.4666 372.626 88.4666 374.467Z" stroke="#ED7D31" stroke-linejoin="round" stroke-miterlimit="10" fill="#ED7D31"/><path d="M88.4666 374.3C88.4666 376.141 86.9742 377.633 85.1332 377.633 83.2923 377.633 81.7999 376.141 81.7999 374.3 81.7999 372.459 83.2923 370.967 85.1332 370.967 86.9742 370.967 88.4666 372.459 88.4666 374.3Z" stroke="#ED7D31" stroke-linejoin="round" stroke-miterlimit="10" fill="#ED7D31"/><path d="M88.7999 374.3C88.7999 376.141 87.3075 377.633 85.4666 377.633 83.6256 377.633 82.1332 376.141 82.1332 374.3 82.1332 372.459 83.6256 370.967 85.4666 370.967 87.3075 370.967 88.7999 372.459 88.7999 374.3Z" stroke="#ED7D31" stroke-linejoin="round" stroke-miterlimit="10" fill="#ED7D31"/><path d="M89.2999 374.133C89.2999 375.974 87.8076 377.467 85.9666 377.467 84.1257 377.467 82.6333 375.974 82.6333 374.133 82.6333 372.292 84.1257 370.8 85.9666 370.8 87.8076 370.8 89.2999 372.292 89.2999 374.133Z" stroke="#ED7D31" stroke-linejoin="round" stroke-miterlimit="10" fill="#ED7D31"/><path d="M89.7999 373.967C89.7999 375.808 88.3075 377.3 86.4666 377.3 84.6256 377.3 83.1332 375.808 83.1332 373.967 83.1332 372.126 84.6256 370.633 86.4666 370.633 88.3075 370.633 89.7999 372.126 89.7999 373.967Z" stroke="#ED7D31" stroke-linejoin="round" stroke-miterlimit="10" fill="#ED7D31"/><path d="M90.1332 373.8C90.1332 375.641 88.6408 377.133 86.7999 377.133 84.9589 377.133 83.4666 375.641 83.4666 373.8 83.4666 371.959 84.9589 370.467 86.7999 370.467 88.6408 370.467 90.1332 371.959 90.1332 373.8Z" stroke="#ED7D31" stroke-linejoin="round" stroke-miterlimit="10" fill="#ED7D31"/><path d="M90.6333 373.633C90.6333 375.474 89.1409 376.967 87.2999 376.967 85.459 376.967 83.9666 375.474 83.9666 373.633 83.9666 371.792 85.459 370.3 87.2999 370.3 89.1409 370.3 90.6333 371.792 90.6333 373.633Z" stroke="#ED7D31" stroke-linejoin="round" stroke-miterlimit="10" fill="#ED7D31"/><path d="M91.1332 373.3C91.1332 375.141 89.6408 376.633 87.7999 376.633 85.9589 376.633 84.4666 375.141 84.4666 373.3 84.4666 371.459 85.9589 369.967 87.7999 369.967 89.6408 369.967 91.1332 371.459 91.1332 373.3Z" stroke="#ED7D31" stroke-linejoin="round" stroke-miterlimit="10" fill="#ED7D31"/><path d="M91.4666 373.133C91.4666 374.974 89.9742 376.467 88.1332 376.467 86.2923 376.467 84.7999 374.974 84.7999 373.133 84.7999 371.292 86.2923 369.8 88.1332 369.8 89.9742 369.8 91.4666 371.292 91.4666 373.133Z" stroke="#ED7D31" stroke-linejoin="round" stroke-miterlimit="10" fill="#ED7D31"/><path d="M91.9666 372.967C91.9666 374.808 90.4742 376.3 88.6333 376.3 86.7923 376.3 85.2999 374.808 85.2999 372.967 85.2999 371.126 86.7923 369.633 88.6333 369.633 90.4742 369.633 91.9666 371.126 91.9666 372.967Z" stroke="#ED7D31" stroke-linejoin="round" stroke-miterlimit="10" fill="#ED7D31"/><path d="M92.4666 372.8C92.4666 374.641 90.9742 376.133 89.1332 376.133 87.2923 376.133 85.7999 374.641 85.7999 372.8 85.7999 370.959 87.2923 369.467 89.1332 369.467 90.9742 369.467 92.4666 370.959 92.4666 372.8Z" stroke="#ED7D31" stroke-linejoin="round" stroke-miterlimit="10" fill="#ED7D31"/><path d="M96.7999 370.8C96.7999 372.641 95.3075 374.133 93.4666 374.133 91.6256 374.133 90.1332 372.641 90.1332 370.8 90.1332 368.959 91.6256 367.467 93.4666 367.467 95.3075 367.467 96.7999 368.959 96.7999 370.8Z" stroke="#ED7D31" stroke-linejoin="round" stroke-miterlimit="10" fill="#ED7D31"/><path d="M101.3 368.8C101.3 370.641 99.8076 372.133 97.9666 372.133 96.1257 372.133 94.6333 370.641 94.6333 368.8 94.6333 366.959 96.1257 365.467 97.9666 365.467 99.8076 365.467 101.3 366.959 101.3 368.8Z" stroke="#ED7D31" stroke-linejoin="round" stroke-miterlimit="10" fill="#ED7D31"/><path d="M105.8 367.133C105.8 368.974 104.308 370.467 102.467 370.467 100.626 370.467 99.1332 368.974 99.1332 367.133 99.1332 365.292 100.626 363.8 102.467 363.8 104.308 363.8 105.8 365.292 105.8 367.133Z" stroke="#ED7D31" stroke-linejoin="round" stroke-miterlimit="10" fill="#ED7D31"/><path d="M110.133 365.3C110.133 367.141 108.641 368.633 106.8 368.633 104.959 368.633 103.467 367.141 103.467 365.3 103.467 363.459 104.959 361.967 106.8 361.967 108.641 361.967 110.133 363.459 110.133 365.3Z" stroke="#ED7D31" stroke-linejoin="round" stroke-miterlimit="10" fill="#ED7D31"/><path d="M114.633 363.3C114.633 365.141 113.141 366.633 111.3 366.633 109.459 366.633 107.967 365.141 107.967 363.3 107.967 361.459 109.459 359.967 111.3 359.967 113.141 359.967 114.633 361.459 114.633 363.3Z" stroke="#ED7D31" stroke-linejoin="round" stroke-miterlimit="10" fill="#ED7D31"/><path d="M119.133 361.133C119.133 362.974 117.641 364.467 115.8 364.467 113.959 364.467 112.467 362.974 112.467 361.133 112.467 359.292 113.959 357.8 115.8 357.8 117.641 357.8 119.133 359.292 119.133 361.133Z" stroke="#ED7D31" stroke-linejoin="round" stroke-miterlimit="10" fill="#ED7D31"/><path d="M123.467 359.3C123.467 361.141 121.974 362.633 120.133 362.633 118.292 362.633 116.8 361.141 116.8 359.3 116.8 357.459 118.292 355.967 120.133 355.967 121.974 355.967 123.467 357.459 123.467 359.3Z" stroke="#ED7D31" stroke-linejoin="round" stroke-miterlimit="10" fill="#ED7D31"/><path d="M127.967 357.133C127.967 358.974 126.474 360.467 124.633 360.467 122.792 360.467 121.3 358.974 121.3 357.133 121.3 355.292 122.792 353.8 124.633 353.8 126.474 353.8 127.967 355.292 127.967 357.133Z" stroke="#ED7D31" stroke-linejoin="round" stroke-miterlimit="10" fill="#ED7D31"/><path d="M132.3 354.967C132.3 356.808 130.808 358.3 128.967 358.3 127.126 358.3 125.633 356.808 125.633 354.967 125.633 353.126 127.126 351.633 128.967 351.633 130.808 351.633 132.3 353.126 132.3 354.967Z" stroke="#ED7D31" stroke-linejoin="round" stroke-miterlimit="10" fill="#ED7D31"/><path d="M176.8 334.633C176.8 336.474 175.308 337.967 173.467 337.967 171.626 337.967 170.133 336.474 170.133 334.633 170.133 332.792 171.626 331.3 173.467 331.3 175.308 331.3 176.8 332.792 176.8 334.633Z" stroke="#ED7D31" stroke-linejoin="round" stroke-miterlimit="10" fill="#ED7D31"/><path d="M221.133 293.633C221.133 295.474 219.641 296.967 217.8 296.967 215.959 296.967 214.467 295.474 214.467 293.633 214.467 291.792 215.959 290.3 217.8 290.3 219.641 290.3 221.133 291.792 221.133 293.633Z" stroke="#ED7D31" stroke-linejoin="round" stroke-miterlimit="10" fill="#ED7D31"/><path d="M265.467 252.967C265.467 254.808 263.974 256.3 262.133 256.3 260.292 256.3 258.8 254.808 258.8 252.967 258.8 251.126 260.292 249.633 262.133 249.633 263.974 249.633 265.467 251.126 265.467 252.967Z" stroke="#ED7D31" stroke-linejoin="round" stroke-miterlimit="10" fill="#ED7D31"/><path d="M309.967 258.967C309.967 260.808 308.474 262.3 306.633 262.3 304.792 262.3 303.3 260.808 303.3 258.967 303.3 257.126 304.792 255.633 306.633 255.633 308.474 255.633 309.967 257.126 309.967 258.967Z" stroke="#ED7D31" stroke-linejoin="round" stroke-miterlimit="10" fill="#ED7D31"/><path d="M354.3 233.967C354.3 235.808 352.808 237.3 350.967 237.3 349.126 237.3 347.633 235.808 347.633 233.967 347.633 232.126 349.126 230.633 350.967 230.633 352.808 230.633 354.3 232.126 354.3 233.967Z" stroke="#ED7D31" stroke-linejoin="round" stroke-miterlimit="10" fill="#ED7D31"/><path d="M398.633 206.967C398.633 208.808 397.141 210.3 395.3 210.3 393.459 210.3 391.967 208.808 391.967 206.967 391.967 205.126 393.459 203.633 395.3 203.633 397.141 203.633 398.633 205.126 398.633 206.967Z" stroke="#ED7D31" stroke-linejoin="round" stroke-miterlimit="10" fill="#ED7D31"/><path d="M443.133 196.133C443.133 197.974 441.641 199.467 439.8 199.467 437.959 199.467 436.467 197.974 436.467 196.133 436.467 194.292 437.959 192.8 439.8 192.8 441.641 192.8 443.133 194.292 443.133 196.133Z" stroke="#ED7D31" stroke-linejoin="round" stroke-miterlimit="10" fill="#ED7D31"/><path d="M487.467 140.633C487.467 142.474 485.974 143.967 484.133 143.967 482.292 143.967 480.8 142.474 480.8 140.633 480.8 138.792 482.292 137.3 484.133 137.3 485.974 137.3 487.467 138.792 487.467 140.633Z" stroke="#ED7D31" stroke-linejoin="round" stroke-miterlimit="10" fill="#ED7D31"/><path d="M531.8 128.967C531.8 130.808 530.307 132.3 528.467 132.3 526.626 132.3 525.133 130.808 525.133 128.967 525.133 127.126 526.626 125.633 528.467 125.633 530.307 125.633 531.8 127.126 531.8 128.967Z" stroke="#ED7D31" stroke-linejoin="round" stroke-miterlimit="10" fill="#ED7D31"/></g><g><path d="M85 375 85 375 85 375 85 375 85 375 85 375 85 375 85 375 85 375 85 375 85 375 85 375 85 375 85 375 85 375 85 375 85 374 85 375 85 374 86 374 86 374 86 374 87 374 87 374 88 374 88 374 89 374 89 374 94 373 98 372 102 371 107 370 111 369 116 368 120 367 125 366 129 365 173 354 218 334 262 323 307 318 351 307 395 288 440 277 484 266 529 250" stroke="#A5A5A5" stroke-width="2" stroke-linecap="round" stroke-linejoin="round" stroke-miterlimit="10" fill="none"/></g><g><path d="M87.9666 374.467C87.9666 376.308 86.4742 377.8 84.6333 377.8 82.7923 377.8 81.2999 376.308 81.2999 374.467 81.2999 372.626 82.7923 371.133 84.6333 371.133 86.4742 371.133 87.9666 372.626 87.9666 374.467Z" stroke="#A5A5A5" stroke-linejoin="round" stroke-miterlimit="10" fill="#A5A5A5"/><path d="M87.9666 374.467C87.9666 376.308 86.4742 377.8 84.6333 377.8 82.7923 377.8 81.2999 376.308 81.2999 374.467 81.2999 372.626 82.7923 371.133 84.6333 371.133 86.4742 371.133 87.9666 372.626 87.9666 374.467Z" stroke="#A5A5A5" stroke-linejoin="round" stroke-miterlimit="10" fill="#A5A5A5"/><path d="M87.9666 374.467C87.9666 376.308 86.4742 377.8 84.6333 377.8 82.7923 377.8 81.2999 376.308 81.2999 374.467 81.2999 372.626 82.7923 371.133 84.6333 371.133 86.4742 371.133 87.9666 372.626 87.9666 374.467Z" stroke="#A5A5A5" stroke-linejoin="round" stroke-miterlimit="10" fill="#A5A5A5"/><path d="M87.9666 374.467C87.9666 376.308 86.4742 377.8 84.6333 377.8 82.7923 377.8 81.2999 376.308 81.2999 374.467 81.2999 372.626 82.7923 371.133 84.6333 371.133 86.4742 371.133 87.9666 372.626 87.9666 374.467Z" stroke="#A5A5A5" stroke-linejoin="round" stroke-miterlimit="10" fill="#A5A5A5"/><path d="M87.9666 374.467C87.9666 376.308 86.4742 377.8 84.6333 377.8 82.7923 377.8 81.2999 376.308 81.2999 374.467 81.2999 372.626 82.7923 371.133 84.6333 371.133 86.4742 371.133 87.9666 372.626 87.9666 374.467Z" stroke="#A5A5A5" stroke-linejoin="round" stroke-miterlimit="10" fill="#A5A5A5"/><path d="M87.9666 374.467C87.9666 376.308 86.4742 377.8 84.6333 377.8 82.7923 377.8 81.2999 376.308 81.2999 374.467 81.2999 372.626 82.7923 371.133 84.6333 371.133 86.4742 371.133 87.9666 372.626 87.9666 374.467Z" stroke="#A5A5A5" stroke-linejoin="round" stroke-miterlimit="10" fill="#A5A5A5"/><path d="M87.9666 374.467C87.9666 376.308 86.4742 377.8 84.6333 377.8 82.7923 377.8 81.2999 376.308 81.2999 374.467 81.2999 372.626 82.7923 371.133 84.6333 371.133 86.4742 371.133 87.9666 372.626 87.9666 374.467Z" stroke="#A5A5A5" stroke-linejoin="round" stroke-miterlimit="10" fill="#A5A5A5"/><path d="M87.9666 374.467C87.9666 376.308 86.4742 377.8 84.6333 377.8 82.7923 377.8 81.2999 376.308 81.2999 374.467 81.2999 372.626 82.7923 371.133 84.6333 371.133 86.4742 371.133 87.9666 372.626 87.9666 374.467Z" stroke="#A5A5A5" stroke-linejoin="round" stroke-miterlimit="10" fill="#A5A5A5"/><path d="M87.9666 374.467C87.9666 376.308 86.4742 377.8 84.6333 377.8 82.7923 377.8 81.2999 376.308 81.2999 374.467 81.2999 372.626 82.7923 371.133 84.6333 371.133 86.4742 371.133 87.9666 372.626 87.9666 374.467Z" stroke="#A5A5A5" stroke-linejoin="round" stroke-miterlimit="10" fill="#A5A5A5"/><path d="M87.9666 374.467C87.9666 376.308 86.4742 377.8 84.6333 377.8 82.7923 377.8 81.2999 376.308 81.2999 374.467 81.2999 372.626 82.7923 371.133 84.6333 371.133 86.4742 371.133 87.9666 372.626 87.9666 374.467Z" stroke="#A5A5A5" stroke-linejoin="round" stroke-miterlimit="10" fill="#A5A5A5"/><path d="M88.1332 374.467C88.1332 376.308 86.6408 377.8 84.7999 377.8 82.9589 377.8 81.4666 376.308 81.4666 374.467 81.4666 372.626 82.9589 371.133 84.7999 371.133 86.6408 371.133 88.1332 372.626 88.1332 374.467Z" stroke="#A5A5A5" stroke-linejoin="round" stroke-miterlimit="10" fill="#A5A5A5"/><path d="M88.1332 374.467C88.1332 376.308 86.6408 377.8 84.7999 377.8 82.9589 377.8 81.4666 376.308 81.4666 374.467 81.4666 372.626 82.9589 371.133 84.7999 371.133 86.6408 371.133 88.1332 372.626 88.1332 374.467Z" stroke="#A5A5A5" stroke-linejoin="round" stroke-miterlimit="10" fill="#A5A5A5"/><path d="M88.1332 374.467C88.1332 376.308 86.6408 377.8 84.7999 377.8 82.9589 377.8 81.4666 376.308 81.4666 374.467 81.4666 372.626 82.9589 371.133 84.7999 371.133 86.6408 371.133 88.1332 372.626 88.1332 374.467Z" stroke="#A5A5A5" stroke-linejoin="round" stroke-miterlimit="10" fill="#A5A5A5"/><path d="M88.1332 374.467C88.1332 376.308 86.6408 377.8 84.7999 377.8 82.9589 377.8 81.4666 376.308 81.4666 374.467 81.4666 372.626 82.9589 371.133 84.7999 371.133 86.6408 371.133 88.1332 372.626 88.1332 374.467Z" stroke="#A5A5A5" stroke-linejoin="round" stroke-miterlimit="10" fill="#A5A5A5"/><path d="M88.2999 374.467C88.2999 376.308 86.8076 377.8 84.9666 377.8 83.1257 377.8 81.6333 376.308 81.6333 374.467 81.6333 372.626 83.1257 371.133 84.9666 371.133 86.8076 371.133 88.2999 372.626 88.2999 374.467Z" stroke="#A5A5A5" stroke-linejoin="round" stroke-miterlimit="10" fill="#A5A5A5"/><path d="M88.2999 374.467C88.2999 376.308 86.8076 377.8 84.9666 377.8 83.1257 377.8 81.6333 376.308 81.6333 374.467 81.6333 372.626 83.1257 371.133 84.9666 371.133 86.8076 371.133 88.2999 372.626 88.2999 374.467Z" stroke="#A5A5A5" stroke-linejoin="round" stroke-miterlimit="10" fill="#A5A5A5"/><path d="M88.2999 374.467C88.2999 376.308 86.8076 377.8 84.9666 377.8 83.1257 377.8 81.6333 376.308 81.6333 374.467 81.6333 372.626 83.1257 371.133 84.9666 371.133 86.8076 371.133 88.2999 372.626 88.2999 374.467Z" stroke="#A5A5A5" stroke-linejoin="round" stroke-miterlimit="10" fill="#A5A5A5"/><path d="M88.4666 374.467C88.4666 376.308 86.9742 377.8 85.1332 377.8 83.2923 377.8 81.7999 376.308 81.7999 374.467 81.7999 372.626 83.2923 371.133 85.1332 371.133 86.9742 371.133 88.4666 372.626 88.4666 374.467Z" stroke="#A5A5A5" stroke-linejoin="round" stroke-miterlimit="10" fill="#A5A5A5"/><path d="M88.4666 374.467C88.4666 376.308 86.9742 377.8 85.1332 377.8 83.2923 377.8 81.7999 376.308 81.7999 374.467 81.7999 372.626 83.2923 371.133 85.1332 371.133 86.9742 371.133 88.4666 372.626 88.4666 374.467Z" stroke="#A5A5A5" stroke-linejoin="round" stroke-miterlimit="10" fill="#A5A5A5"/><path d="M88.7999 374.3C88.7999 376.141 87.3075 377.633 85.4666 377.633 83.6256 377.633 82.1332 376.141 82.1332 374.3 82.1332 372.459 83.6256 370.967 85.4666 370.967 87.3075 370.967 88.7999 372.459 88.7999 374.3Z" stroke="#A5A5A5" stroke-linejoin="round" stroke-miterlimit="10" fill="#A5A5A5"/><path d="M89.2999 374.3C89.2999 376.141 87.8076 377.633 85.9666 377.633 84.1257 377.633 82.6333 376.141 82.6333 374.3 82.6333 372.459 84.1257 370.967 85.9666 370.967 87.8076 370.967 89.2999 372.459 89.2999 374.3Z" stroke="#A5A5A5" stroke-linejoin="round" stroke-miterlimit="10" fill="#A5A5A5"/><path d="M89.7999 374.3C89.7999 376.141 88.3075 377.633 86.4666 377.633 84.6256 377.633 83.1332 376.141 83.1332 374.3 83.1332 372.459 84.6256 370.967 86.4666 370.967 88.3075 370.967 89.7999 372.459 89.7999 374.3Z" stroke="#A5A5A5" stroke-linejoin="round" stroke-miterlimit="10" fill="#A5A5A5"/><path d="M90.1332 374.133C90.1332 375.974 88.6408 377.467 86.7999 377.467 84.9589 377.467 83.4666 375.974 83.4666 374.133 83.4666 372.292 84.9589 370.8 86.7999 370.8 88.6408 370.8 90.1332 372.292 90.1332 374.133Z" stroke="#A5A5A5" stroke-linejoin="round" stroke-miterlimit="10" fill="#A5A5A5"/><path d="M90.6333 374.133C90.6333 375.974 89.1409 377.467 87.2999 377.467 85.459 377.467 83.9666 375.974 83.9666 374.133 83.9666 372.292 85.459 370.8 87.2999 370.8 89.1409 370.8 90.6333 372.292 90.6333 374.133Z" stroke="#A5A5A5" stroke-linejoin="round" stroke-miterlimit="10" fill="#A5A5A5"/><path d="M91.1332 373.967C91.1332 375.808 89.6408 377.3 87.7999 377.3 85.9589 377.3 84.4666 375.808 84.4666 373.967 84.4666 372.126 85.9589 370.633 87.7999 370.633 89.6408 370.633 91.1332 372.126 91.1332 373.967Z" stroke="#A5A5A5" stroke-linejoin="round" stroke-miterlimit="10" fill="#A5A5A5"/><path d="M91.4666 373.967C91.4666 375.808 89.9742 377.3 88.1332 377.3 86.2923 377.3 84.7999 375.808 84.7999 373.967 84.7999 372.126 86.2923 370.633 88.1332 370.633 89.9742 370.633 91.4666 372.126 91.4666 373.967Z" stroke="#A5A5A5" stroke-linejoin="round" stroke-miterlimit="10" fill="#A5A5A5"/><path d="M91.9666 373.8C91.9666 375.641 90.4742 377.133 88.6333 377.133 86.7923 377.133 85.2999 375.641 85.2999 373.8 85.2999 371.959 86.7923 370.467 88.6333 370.467 90.4742 370.467 91.9666 371.959 91.9666 373.8Z" stroke="#A5A5A5" stroke-linejoin="round" stroke-miterlimit="10" fill="#A5A5A5"/><path d="M92.4666 373.633C92.4666 375.474 90.9742 376.967 89.1332 376.967 87.2923 376.967 85.7999 375.474 85.7999 373.633 85.7999 371.792 87.2923 370.3 89.1332 370.3 90.9742 370.3 92.4666 371.792 92.4666 373.633Z" stroke="#A5A5A5" stroke-linejoin="round" stroke-miterlimit="10" fill="#A5A5A5"/><path d="M96.7999 372.8C96.7999 374.641 95.3075 376.133 93.4666 376.133 91.6256 376.133 90.1332 374.641 90.1332 372.8 90.1332 370.959 91.6256 369.467 93.4666 369.467 95.3075 369.467 96.7999 370.959 96.7999 372.8Z" stroke="#A5A5A5" stroke-linejoin="round" stroke-miterlimit="10" fill="#A5A5A5"/><path d="M101.3 371.8C101.3 373.641 99.8076 375.133 97.9666 375.133 96.1257 375.133 94.6333 373.641 94.6333 371.8 94.6333 369.959 96.1257 368.467 97.9666 368.467 99.8076 368.467 101.3 369.959 101.3 371.8Z" stroke="#A5A5A5" stroke-linejoin="round" stroke-miterlimit="10" fill="#A5A5A5"/><path d="M105.8 370.967C105.8 372.808 104.308 374.3 102.467 374.3 100.626 374.3 99.1332 372.808 99.1332 370.967 99.1332 369.126 100.626 367.633 102.467 367.633 104.308 367.633 105.8 369.126 105.8 370.967Z" stroke="#A5A5A5" stroke-linejoin="round" stroke-miterlimit="10" fill="#A5A5A5"/><path d="M110.133 369.967C110.133 371.808 108.641 373.3 106.8 373.3 104.959 373.3 103.467 371.808 103.467 369.967 103.467 368.126 104.959 366.633 106.8 366.633 108.641 366.633 110.133 368.126 110.133 369.967Z" stroke="#A5A5A5" stroke-linejoin="round" stroke-miterlimit="10" fill="#A5A5A5"/><path d="M114.633 368.967C114.633 370.808 113.141 372.3 111.3 372.3 109.459 372.3 107.967 370.808 107.967 368.967 107.967 367.126 109.459 365.633 111.3 365.633 113.141 365.633 114.633 367.126 114.633 368.967Z" stroke="#A5A5A5" stroke-linejoin="round" stroke-miterlimit="10" fill="#A5A5A5"/><path d="M119.133 367.8C119.133 369.641 117.641 371.133 115.8 371.133 113.959 371.133 112.467 369.641 112.467 367.8 112.467 365.959 113.959 364.467 115.8 364.467 117.641 364.467 119.133 365.959 119.133 367.8Z" stroke="#A5A5A5" stroke-linejoin="round" stroke-miterlimit="10" fill="#A5A5A5"/><path d="M123.467 366.8C123.467 368.641 121.974 370.133 120.133 370.133 118.292 370.133 116.8 368.641 116.8 366.8 116.8 364.959 118.292 363.467 120.133 363.467 121.974 363.467 123.467 364.959 123.467 366.8Z" stroke="#A5A5A5" stroke-linejoin="round" stroke-miterlimit="10" fill="#A5A5A5"/><path d="M127.967 365.8C127.967 367.641 126.474 369.133 124.633 369.133 122.792 369.133 121.3 367.641 121.3 365.8 121.3 363.959 122.792 362.467 124.633 362.467 126.474 362.467 127.967 363.959 127.967 365.8Z" stroke="#A5A5A5" stroke-linejoin="round" stroke-miterlimit="10" fill="#A5A5A5"/><path d="M132.3 364.633C132.3 366.474 130.808 367.967 128.967 367.967 127.126 367.967 125.633 366.474 125.633 364.633 125.633 362.792 127.126 361.3 128.967 361.3 130.808 361.3 132.3 362.792 132.3 364.633Z" stroke="#A5A5A5" stroke-linejoin="round" stroke-miterlimit="10" fill="#A5A5A5"/><path d="M176.8 354.133C176.8 355.974 175.308 357.467 173.467 357.467 171.626 357.467 170.133 355.974 170.133 354.133 170.133 352.292 171.626 350.8 173.467 350.8 175.308 350.8 176.8 352.292 176.8 354.133Z" stroke="#A5A5A5" stroke-linejoin="round" stroke-miterlimit="10" fill="#A5A5A5"/><path d="M221.133 334.133C221.133 335.974 219.641 337.467 217.8 337.467 215.959 337.467 214.467 335.974 214.467 334.133 214.467 332.292 215.959 330.8 217.8 330.8 219.641 330.8 221.133 332.292 221.133 334.133Z" stroke="#A5A5A5" stroke-linejoin="round" stroke-miterlimit="10" fill="#A5A5A5"/><path d="M265.467 322.633C265.467 324.474 263.974 325.967 262.133 325.967 260.292 325.967 258.8 324.474 258.8 322.633 258.8 320.792 260.292 319.3 262.133 319.3 263.974 319.3 265.467 320.792 265.467 322.633Z" stroke="#A5A5A5" stroke-linejoin="round" stroke-miterlimit="10" fill="#A5A5A5"/><path d="M309.967 317.633C309.967 319.474 308.474 320.967 306.633 320.967 304.792 320.967 303.3 319.474 303.3 317.633 303.3 315.792 304.792 314.3 306.633 314.3 308.474 314.3 309.967 315.792 309.967 317.633Z" stroke="#A5A5A5" stroke-linejoin="round" stroke-miterlimit="10" fill="#A5A5A5"/><path d="M354.3 307.133C354.3 308.974 352.808 310.467 350.967 310.467 349.126 310.467 347.633 308.974 347.633 307.133 347.633 305.292 349.126 303.8 350.967 303.8 352.808 303.8 354.3 305.292 354.3 307.133Z" stroke="#A5A5A5" stroke-linejoin="round" stroke-miterlimit="10" fill="#A5A5A5"/><path d="M398.633 287.8C398.633 289.641 397.141 291.133 395.3 291.133 393.459 291.133 391.967 289.641 391.967 287.8 391.967 285.959 393.459 284.467 395.3 284.467 397.141 284.467 398.633 285.959 398.633 287.8Z" stroke="#A5A5A5" stroke-linejoin="round" stroke-miterlimit="10" fill="#A5A5A5"/><path d="M443.133 276.8C443.133 278.641 441.641 280.133 439.8 280.133 437.959 280.133 436.467 278.641 436.467 276.8 436.467 274.959 437.959 273.467 439.8 273.467 441.641 273.467 443.133 274.959 443.133 276.8Z" stroke="#A5A5A5" stroke-linejoin="round" stroke-miterlimit="10" fill="#A5A5A5"/><path d="M487.467 266.133C487.467 267.974 485.974 269.467 484.133 269.467 482.292 269.467 480.8 267.974 480.8 266.133 480.8 264.292 482.292 262.8 484.133 262.8 485.974 262.8 487.467 264.292 487.467 266.133Z" stroke="#A5A5A5" stroke-linejoin="round" stroke-miterlimit="10" fill="#A5A5A5"/><path d="M531.8 249.467C531.8 251.308 530.307 252.8 528.467 252.8 526.626 252.8 525.133 251.308 525.133 249.467 525.133 247.626 526.626 246.133 528.467 246.133 530.307 246.133 531.8 247.626 531.8 249.467Z" stroke="#A5A5A5" stroke-linejoin="round" stroke-miterlimit="10" fill="#A5A5A5"/></g><g><text fill="#595959" font-family="Calibri,Calibri_MSFontService,sans-serif" font-weight="400" font-size="12" transform="translate(67.48 378)">0</text></g><g><text fill="#595959" font-family="Calibri,Calibri_MSFontService,sans-serif" font-weight="400" font-size="12" transform="translate(49.24 347)">1000</text></g><g><text fill="#595959" font-family="Calibri,Calibri_MSFontService,sans-serif" font-weight="400" font-size="12" transform="translate(49.24 316)">2000</text></g><g><text fill="#595959" font-family="Calibri,Calibri_MSFontService,sans-serif" font-weight="400" font-size="12" transform="translate(49.24 285)">3000</text></g><g><text fill="#595959" font-family="Calibri,Calibri_MSFontService,sans-serif" font-weight="400" font-size="12" transform="translate(49.24 254)">4000</text></g><g><text fill="#595959" font-family="Calibri,Calibri_MSFontService,sans-serif" font-weight="400" font-size="12" transform="translate(49.24 224)">5000</text></g><g><text fill="#595959" font-family="Calibri,Calibri_MSFontService,sans-serif" font-weight="400" font-size="12" transform="translate(49.24 193)">6000</text></g><g><text fill="#595959" font-family="Calibri,Calibri_MSFontService,sans-serif" font-weight="400" font-size="12" transform="translate(49.24 162)">7000</text></g><g><text fill="#595959" font-family="Calibri,Calibri_MSFontService,sans-serif" font-weight="400" font-size="12" transform="translate(49.24 131)">8000</text></g><g><text fill="#595959" font-family="Calibri,Calibri_MSFontService,sans-serif" font-weight="400" font-size="12" transform="translate(49.24 101)">9000</text></g><g><text fill="#595959" font-family="Calibri,Calibri_MSFontService,sans-serif" font-weight="400" font-size="12" transform="translate(81.6522 393)">0</text></g><g><text fill="#595959" font-family="Calibri,Calibri_MSFontService,sans-serif" font-weight="400" font-size="12" transform="translate(155.229 393)">200000</text></g><g><text fill="#595959" font-family="Calibri,Calibri_MSFontService,sans-serif" font-weight="400" font-size="12" transform="translate(244.006 393)">400000</text></g><g><text fill="#595959" font-family="Calibri,Calibri_MSFontService,sans-serif" font-weight="400" font-size="12" transform="translate(332.783 393)">600000</text></g><g><text fill="#595959" font-family="Calibri,Calibri_MSFontService,sans-serif" font-weight="400" font-size="12" transform="translate(421.56 393)">800000</text></g><g><text fill="#595959" font-family="Calibri,Calibri_MSFontService,sans-serif" font-weight="400" font-size="12" transform="translate(507.296 393)">1000000</text></g><g><text fill="#595959" font-family="Calibri,Calibri_MSFontService,sans-serif" font-weight="400" font-size="12" transform="translate(596.073 393)">1200000</text></g><g><text fill="#595959" font-family="Calibri,Calibri_MSFontService,sans-serif" font-weight="700" font-size="13" transform="matrix(6.12323e-17 -1 1 6.12323e-17 41.9666 266)">durée (ms)</text></g><g><text fill="#595959" font-family="Calibri,Calibri_MSFontService,sans-serif" font-weight="700" font-size="13" transform="translate(334.226 414)">target</text></g><g><text fill="#595959" font-family="Calibri,Calibri_MSFontService,sans-serif" font-weight="700" font-size="19" transform="translate(80.5999 53)">Durées d'exécution des différentes méthodes de</text></g><g><text fill="#595959" font-family="Calibri,Calibri_MSFontService,sans-serif" font-weight="700" font-size="19" transform="translate(458.747 53)">mémo</text></g><g><text fill="#595959" font-family="Calibri,Calibri_MSFontService,sans-serif" font-weight="700" font-size="19" transform="translate(508.553 53)">ïs</text></g><g><text fill="#595959" font-family="Calibri,Calibri_MSFontService,sans-serif" font-weight="700" font-size="19" transform="translate(520.587 53)">ation</text></g><g><text fill="#595959" font-family="Calibri,Calibri_MSFontService,sans-serif" font-weight="700" font-size="19" transform="translate(564.96 53)">du</text></g><g><text fill="#595959" font-family="Calibri,Calibri_MSFontService,sans-serif" font-weight="700" font-size="19" transform="translate(240.52 76)">SSP selon la valeur cible</text></g><g><path d="M118 445 144 445" stroke="#4472C4" stroke-width="2" stroke-linecap="round" stroke-linejoin="round" stroke-miterlimit="10" fill="none" fill-rule="evenodd"/></g><g><path d="M134.5 445C134.5 446.933 132.933 448.5 131 448.5 129.067 448.5 127.5 446.933 127.5 445 127.5 443.067 129.067 441.5 131 441.5 132.933 441.5 134.5 443.067 134.5 445Z" stroke="#4472C4" stroke-linejoin="round" stroke-miterlimit="10" fill="#4472C4"/></g><g><text fill="#595959" font-family="Calibri,Calibri_MSFontService,sans-serif" font-weight="400" font-size="12" transform="translate(146.623 448)">séquentielle récursive</text></g><g><path d="M277 445 303 445" stroke="#ED7D31" stroke-width="2" stroke-linecap="round" stroke-linejoin="round" stroke-miterlimit="10" fill="none" fill-rule="evenodd"/></g><g><path d="M293.5 445C293.5 446.933 291.933 448.5 290 448.5 288.067 448.5 286.5 446.933 286.5 445 286.5 443.067 288.067 441.5 290 441.5 291.933 441.5 293.5 443.067 293.5 445Z" stroke="#ED7D31" stroke-linejoin="round" stroke-miterlimit="10" fill="#ED7D31"/></g><g><text fill="#595959" font-family="Calibri,Calibri_MSFontService,sans-serif" font-weight="400" font-size="12" transform="translate(305.569 448)">séquentielle itérative</text></g><g><path d="M435 445 461 445" stroke="#A5A5A5" stroke-width="2" stroke-linecap="round" stroke-linejoin="round" stroke-miterlimit="10" fill="none" fill-rule="evenodd"/></g><g><path d="M451.5 445C451.5 446.933 449.933 448.5 448 448.5 446.067 448.5 444.5 446.933 444.5 445 444.5 443.067 446.067 441.5 448 441.5 449.933 441.5 451.5 443.067 451.5 445Z" stroke="#A5A5A5" stroke-linejoin="round" stroke-miterlimit="10" fill="#A5A5A5"/></g><g><text fill="#595959" font-family="Calibri,Calibri_MSFontService,sans-serif" font-weight="400" font-size="12" transform="translate(463.51 448)">parallèle itérative</text></g></g></svg>